<?xml version="1.0" encoding="utf-8" standalone="no"?>
<!DOCTYPE svg PUBLIC "-//W3C//DTD SVG 1.1//EN"
  "http://www.w3.org/Graphics/SVG/1.1/DTD/svg11.dtd">
<svg xmlns:xlink="http://www.w3.org/1999/xlink" width="710.725625pt" height="277.37pt" viewBox="0 0 710.725625 277.37" xmlns="http://www.w3.org/2000/svg" version="1.1">
 <metadata>
  <rdf:RDF xmlns:dc="http://purl.org/dc/elements/1.1/" xmlns:cc="http://creativecommons.org/ns#" xmlns:rdf="http://www.w3.org/1999/02/22-rdf-syntax-ns#">
   <cc:Work>
    <dc:type rdf:resource="http://purl.org/dc/dcmitype/StillImage"/>
    <dc:date>2026-02-24T20:25:47.262848</dc:date>
    <dc:format>image/svg+xml</dc:format>
    <dc:creator>
     <cc:Agent>
      <dc:title>Matplotlib v3.10.6, https://matplotlib.org/</dc:title>
     </cc:Agent>
    </dc:creator>
   </cc:Work>
  </rdf:RDF>
 </metadata>
 <defs>
  <style type="text/css">*{stroke-linejoin: round; stroke-linecap: butt}</style>
 </defs>
 <g id="figure_1">
  <g id="patch_1">
   <path d="M 0 277.37 
L 710.725625 277.37 
L 710.725625 0 
L 0 0 
z
" style="fill: #ffffff"/>
  </g>
  <g id="axes_1">
   <g id="patch_2">
    <path d="M 67.335625 237.878125 
L 703.525625 237.878125 
L 703.525625 22.318125 
L 67.335625 22.318125 
z
" style="fill: #ffffff"/>
   </g>
   <g id="matplotlib.axis_1">
    <g id="xtick_1">
     <g id="line2d_1">
      <path d="M 96.253352 237.878125 
L 96.253352 22.318125 
" clip-path="url(#pe1bd024f5d)" style="fill: none; stroke: #b0b0b0; stroke-opacity: 0.2; stroke-width: 0.8; stroke-linecap: square"/>
     </g>
     <g id="line2d_2">
      <defs>
       <path id="m7835e3c9e8" d="M 0 0 
L 0 3.5 
" style="stroke: #000000; stroke-width: 0.8"/>
      </defs>
      <g>
       <use xlink:href="#m7835e3c9e8" x="96.253352" y="237.878125" style="stroke: #000000; stroke-width: 0.8"/>
      </g>
     </g>
     <g id="text_1">
      <text style="font-size: 11px; font-family: 'DejaVu Sans', 'Bitstream Vera Sans', 'Computer Modern Sans Serif', 'Lucida Grande', 'Verdana', 'Geneva', 'Lucid', 'Arial', 'Helvetica', 'Avant Garde', sans-serif; text-anchor: middle" x="96.253352" y="253.236406" transform="rotate(-0 96.253352 253.236406)">0</text>
     </g>
    </g>
    <g id="xtick_2">
     <g id="line2d_3">
      <path d="M 213.092654 237.878125 
L 213.092654 22.318125 
" clip-path="url(#pe1bd024f5d)" style="fill: none; stroke: #b0b0b0; stroke-opacity: 0.2; stroke-width: 0.8; stroke-linecap: square"/>
     </g>
     <g id="line2d_4">
      <g>
       <use xlink:href="#m7835e3c9e8" x="213.092654" y="237.878125" style="stroke: #000000; stroke-width: 0.8"/>
      </g>
     </g>
     <g id="text_2">
      <text style="font-size: 11px; font-family: 'DejaVu Sans', 'Bitstream Vera Sans', 'Computer Modern Sans Serif', 'Lucida Grande', 'Verdana', 'Geneva', 'Lucid', 'Arial', 'Helvetica', 'Avant Garde', sans-serif; text-anchor: middle" x="213.092654" y="253.236406" transform="rotate(-0 213.092654 253.236406)">20</text>
     </g>
    </g>
    <g id="xtick_3">
     <g id="line2d_5">
      <path d="M 329.931956 237.878125 
L 329.931956 22.318125 
" clip-path="url(#pe1bd024f5d)" style="fill: none; stroke: #b0b0b0; stroke-opacity: 0.2; stroke-width: 0.8; stroke-linecap: square"/>
     </g>
     <g id="line2d_6">
      <g>
       <use xlink:href="#m7835e3c9e8" x="329.931956" y="237.878125" style="stroke: #000000; stroke-width: 0.8"/>
      </g>
     </g>
     <g id="text_3">
      <text style="font-size: 11px; font-family: 'DejaVu Sans', 'Bitstream Vera Sans', 'Computer Modern Sans Serif', 'Lucida Grande', 'Verdana', 'Geneva', 'Lucid', 'Arial', 'Helvetica', 'Avant Garde', sans-serif; text-anchor: middle" x="329.931956" y="253.236406" transform="rotate(-0 329.931956 253.236406)">40</text>
     </g>
    </g>
    <g id="xtick_4">
     <g id="line2d_7">
      <path d="M 446.771259 237.878125 
L 446.771259 22.318125 
" clip-path="url(#pe1bd024f5d)" style="fill: none; stroke: #b0b0b0; stroke-opacity: 0.2; stroke-width: 0.8; stroke-linecap: square"/>
     </g>
     <g id="line2d_8">
      <g>
       <use xlink:href="#m7835e3c9e8" x="446.771259" y="237.878125" style="stroke: #000000; stroke-width: 0.8"/>
      </g>
     </g>
     <g id="text_4">
      <text style="font-size: 11px; font-family: 'DejaVu Sans', 'Bitstream Vera Sans', 'Computer Modern Sans Serif', 'Lucida Grande', 'Verdana', 'Geneva', 'Lucid', 'Arial', 'Helvetica', 'Avant Garde', sans-serif; text-anchor: middle" x="446.771259" y="253.236406" transform="rotate(-0 446.771259 253.236406)">60</text>
     </g>
    </g>
    <g id="xtick_5">
     <g id="line2d_9">
      <path d="M 563.610561 237.878125 
L 563.610561 22.318125 
" clip-path="url(#pe1bd024f5d)" style="fill: none; stroke: #b0b0b0; stroke-opacity: 0.2; stroke-width: 0.8; stroke-linecap: square"/>
     </g>
     <g id="line2d_10">
      <g>
       <use xlink:href="#m7835e3c9e8" x="563.610561" y="237.878125" style="stroke: #000000; stroke-width: 0.8"/>
      </g>
     </g>
     <g id="text_5">
      <text style="font-size: 11px; font-family: 'DejaVu Sans', 'Bitstream Vera Sans', 'Computer Modern Sans Serif', 'Lucida Grande', 'Verdana', 'Geneva', 'Lucid', 'Arial', 'Helvetica', 'Avant Garde', sans-serif; text-anchor: middle" x="563.610561" y="253.236406" transform="rotate(-0 563.610561 253.236406)">80</text>
     </g>
    </g>
    <g id="xtick_6">
     <g id="line2d_11">
      <path d="M 680.449863 237.878125 
L 680.449863 22.318125 
" clip-path="url(#pe1bd024f5d)" style="fill: none; stroke: #b0b0b0; stroke-opacity: 0.2; stroke-width: 0.8; stroke-linecap: square"/>
     </g>
     <g id="line2d_12">
      <g>
       <use xlink:href="#m7835e3c9e8" x="680.449863" y="237.878125" style="stroke: #000000; stroke-width: 0.8"/>
      </g>
     </g>
     <g id="text_6">
      <text style="font-size: 11px; font-family: 'DejaVu Sans', 'Bitstream Vera Sans', 'Computer Modern Sans Serif', 'Lucida Grande', 'Verdana', 'Geneva', 'Lucid', 'Arial', 'Helvetica', 'Avant Garde', sans-serif; text-anchor: middle" x="680.449863" y="253.236406" transform="rotate(-0 680.449863 253.236406)">100</text>
     </g>
    </g>
    <g id="text_7">
     <text style="font-size: 11px; font-family: 'DejaVu Sans', 'Bitstream Vera Sans', 'Computer Modern Sans Serif', 'Lucida Grande', 'Verdana', 'Geneva', 'Lucid', 'Arial', 'Helvetica', 'Avant Garde', sans-serif; text-anchor: middle" x="385.430625" y="267.882344" transform="rotate(-0 385.430625 267.882344)">run index (file order)</text>
    </g>
   </g>
   <g id="matplotlib.axis_2">
    <g id="ytick_1">
     <g id="line2d_13">
      <path d="M 67.335625 228.079943 
L 703.525625 228.079943 
" clip-path="url(#pe1bd024f5d)" style="fill: none; stroke: #b0b0b0; stroke-opacity: 0.2; stroke-width: 0.8; stroke-linecap: square"/>
     </g>
     <g id="line2d_14">
      <defs>
       <path id="meb658beda5" d="M 0 0 
L -3.5 0 
" style="stroke: #000000; stroke-width: 0.8"/>
      </defs>
      <g>
       <use xlink:href="#meb658beda5" x="67.335625" y="228.079943" style="stroke: #000000; stroke-width: 0.8"/>
      </g>
     </g>
     <g id="text_8">
      <text style="font-size: 11px; font-family: 'DejaVu Sans', 'Bitstream Vera Sans', 'Computer Modern Sans Serif', 'Lucida Grande', 'Verdana', 'Geneva', 'Lucid', 'Arial', 'Helvetica', 'Avant Garde', sans-serif; text-anchor: end" x="60.335625" y="232.259084" transform="rotate(-0 60.335625 232.259084)">0.0000</text>
     </g>
    </g>
    <g id="ytick_2">
     <g id="line2d_15">
      <path d="M 67.335625 194.724958 
L 703.525625 194.724958 
" clip-path="url(#pe1bd024f5d)" style="fill: none; stroke: #b0b0b0; stroke-opacity: 0.2; stroke-width: 0.8; stroke-linecap: square"/>
     </g>
     <g id="line2d_16">
      <g>
       <use xlink:href="#meb658beda5" x="67.335625" y="194.724958" style="stroke: #000000; stroke-width: 0.8"/>
      </g>
     </g>
     <g id="text_9">
      <text style="font-size: 11px; font-family: 'DejaVu Sans', 'Bitstream Vera Sans', 'Computer Modern Sans Serif', 'Lucida Grande', 'Verdana', 'Geneva', 'Lucid', 'Arial', 'Helvetica', 'Avant Garde', sans-serif; text-anchor: end" x="60.335625" y="198.904098" transform="rotate(-0 60.335625 198.904098)">0.0002</text>
     </g>
    </g>
    <g id="ytick_3">
     <g id="line2d_17">
      <path d="M 67.335625 161.369972 
L 703.525625 161.369972 
" clip-path="url(#pe1bd024f5d)" style="fill: none; stroke: #b0b0b0; stroke-opacity: 0.2; stroke-width: 0.8; stroke-linecap: square"/>
     </g>
     <g id="line2d_18">
      <g>
       <use xlink:href="#meb658beda5" x="67.335625" y="161.369972" style="stroke: #000000; stroke-width: 0.8"/>
      </g>
     </g>
     <g id="text_10">
      <text style="font-size: 11px; font-family: 'DejaVu Sans', 'Bitstream Vera Sans', 'Computer Modern Sans Serif', 'Lucida Grande', 'Verdana', 'Geneva', 'Lucid', 'Arial', 'Helvetica', 'Avant Garde', sans-serif; text-anchor: end" x="60.335625" y="165.549113" transform="rotate(-0 60.335625 165.549113)">0.0004</text>
     </g>
    </g>
    <g id="ytick_4">
     <g id="line2d_19">
      <path d="M 67.335625 128.014987 
L 703.525625 128.014987 
" clip-path="url(#pe1bd024f5d)" style="fill: none; stroke: #b0b0b0; stroke-opacity: 0.2; stroke-width: 0.8; stroke-linecap: square"/>
     </g>
     <g id="line2d_20">
      <g>
       <use xlink:href="#meb658beda5" x="67.335625" y="128.014987" style="stroke: #000000; stroke-width: 0.8"/>
      </g>
     </g>
     <g id="text_11">
      <text style="font-size: 11px; font-family: 'DejaVu Sans', 'Bitstream Vera Sans', 'Computer Modern Sans Serif', 'Lucida Grande', 'Verdana', 'Geneva', 'Lucid', 'Arial', 'Helvetica', 'Avant Garde', sans-serif; text-anchor: end" x="60.335625" y="132.194127" transform="rotate(-0 60.335625 132.194127)">0.0006</text>
     </g>
    </g>
    <g id="ytick_5">
     <g id="line2d_21">
      <path d="M 67.335625 94.660001 
L 703.525625 94.660001 
" clip-path="url(#pe1bd024f5d)" style="fill: none; stroke: #b0b0b0; stroke-opacity: 0.2; stroke-width: 0.8; stroke-linecap: square"/>
     </g>
     <g id="line2d_22">
      <g>
       <use xlink:href="#meb658beda5" x="67.335625" y="94.660001" style="stroke: #000000; stroke-width: 0.8"/>
      </g>
     </g>
     <g id="text_12">
      <text style="font-size: 11px; font-family: 'DejaVu Sans', 'Bitstream Vera Sans', 'Computer Modern Sans Serif', 'Lucida Grande', 'Verdana', 'Geneva', 'Lucid', 'Arial', 'Helvetica', 'Avant Garde', sans-serif; text-anchor: end" x="60.335625" y="98.839142" transform="rotate(-0 60.335625 98.839142)">0.0008</text>
     </g>
    </g>
    <g id="ytick_6">
     <g id="line2d_23">
      <path d="M 67.335625 61.305016 
L 703.525625 61.305016 
" clip-path="url(#pe1bd024f5d)" style="fill: none; stroke: #b0b0b0; stroke-opacity: 0.2; stroke-width: 0.8; stroke-linecap: square"/>
     </g>
     <g id="line2d_24">
      <g>
       <use xlink:href="#meb658beda5" x="67.335625" y="61.305016" style="stroke: #000000; stroke-width: 0.8"/>
      </g>
     </g>
     <g id="text_13">
      <text style="font-size: 11px; font-family: 'DejaVu Sans', 'Bitstream Vera Sans', 'Computer Modern Sans Serif', 'Lucida Grande', 'Verdana', 'Geneva', 'Lucid', 'Arial', 'Helvetica', 'Avant Garde', sans-serif; text-anchor: end" x="60.335625" y="65.484156" transform="rotate(-0 60.335625 65.484156)">0.0010</text>
     </g>
    </g>
    <g id="ytick_7">
     <g id="line2d_25">
      <path d="M 67.335625 27.95003 
L 703.525625 27.95003 
" clip-path="url(#pe1bd024f5d)" style="fill: none; stroke: #b0b0b0; stroke-opacity: 0.2; stroke-width: 0.8; stroke-linecap: square"/>
     </g>
     <g id="line2d_26">
      <g>
       <use xlink:href="#meb658beda5" x="67.335625" y="27.95003" style="stroke: #000000; stroke-width: 0.8"/>
      </g>
     </g>
     <g id="text_14">
      <text style="font-size: 11px; font-family: 'DejaVu Sans', 'Bitstream Vera Sans', 'Computer Modern Sans Serif', 'Lucida Grande', 'Verdana', 'Geneva', 'Lucid', 'Arial', 'Helvetica', 'Avant Garde', sans-serif; text-anchor: end" x="60.335625" y="32.129171" transform="rotate(-0 60.335625 32.129171)">0.0012</text>
     </g>
    </g>
    <g id="text_15">
     <text style="font-size: 11px; font-family: 'DejaVu Sans', 'Bitstream Vera Sans', 'Computer Modern Sans Serif', 'Lucida Grande', 'Verdana', 'Geneva', 'Lucid', 'Arial', 'Helvetica', 'Avant Garde', sans-serif; text-anchor: middle" x="15.558281" y="130.098125" transform="rotate(-90 15.558281 130.098125)">avg queue delay (ms)</text>
    </g>
   </g>
   <g id="line2d_27">
    <path d="M 96.253352 228.079943 
L 102.095317 228.079943 
L 107.937282 228.079943 
L 113.779248 228.079943 
L 119.621213 228.079943 
L 125.463178 228.079943 
L 131.305143 228.079943 
L 137.147108 228.079943 
L 142.989073 228.079943 
L 148.831038 228.079943 
L 154.673003 228.079943 
L 160.514968 228.079943 
L 166.356934 228.079943 
L 172.198899 228.079943 
L 178.040864 228.079943 
L 183.882829 228.079943 
L 189.724794 228.079943 
L 195.566759 228.079943 
L 201.408724 228.079943 
L 207.250689 228.079943 
L 213.092654 228.079943 
L 218.934619 228.079943 
L 224.776585 228.079943 
L 230.61855 228.079943 
L 236.460515 228.079943 
L 242.30248 228.079943 
L 248.144445 228.079943 
L 253.98641 228.079943 
L 259.828375 228.079943 
L 265.67034 228.079943 
L 271.512305 228.079943 
L 277.354271 228.079943 
L 283.196236 228.079943 
L 289.038201 228.079943 
L 294.880166 228.079943 
L 300.722131 228.079943 
L 306.564096 228.079943 
L 312.406061 228.079943 
L 318.248026 228.079943 
L 324.089991 228.079943 
L 329.931956 228.079943 
L 335.773922 228.079943 
L 341.615887 228.079943 
L 347.457852 228.079943 
L 353.299817 228.079943 
L 359.141782 228.079943 
L 364.983747 228.079943 
L 370.825712 228.079943 
L 376.667677 228.079943 
L 382.509642 228.079943 
L 388.351608 228.079943 
L 394.193573 228.079943 
L 400.035538 228.079943 
L 405.877503 228.079943 
L 411.719468 228.079943 
L 417.561433 228.079943 
L 423.403398 228.079943 
L 429.245363 228.079943 
L 435.087328 228.079943 
L 440.929294 228.079943 
L 446.771259 228.079943 
L 452.613224 228.079943 
L 458.455189 228.079943 
L 464.297154 228.079943 
L 470.139119 228.079943 
L 475.981084 228.079943 
L 481.823049 228.079943 
L 487.665014 228.079943 
L 493.506979 228.079943 
L 499.348945 228.079943 
L 505.19091 228.079943 
L 511.032875 228.079943 
L 516.87484 228.079943 
L 522.716805 228.079943 
L 528.55877 228.079943 
L 534.400735 228.079943 
L 540.2427 228.079943 
L 546.084665 228.079943 
L 551.926631 228.079943 
L 557.768596 228.079943 
L 563.610561 228.079943 
L 569.452526 228.079943 
L 575.294491 228.079943 
L 581.136456 228.079943 
L 586.978421 228.079943 
L 592.820386 228.079943 
L 598.662351 228.079943 
L 604.504316 228.079943 
L 610.346282 228.079943 
L 616.188247 228.079943 
L 622.030212 228.079943 
L 627.872177 228.079943 
L 633.714142 228.079943 
L 639.556107 228.079943 
L 645.398072 228.079943 
L 651.240037 228.079943 
L 657.082002 228.079943 
L 662.923968 228.079943 
L 668.765933 228.079943 
L 674.607898 228.079943 
" clip-path="url(#pe1bd024f5d)" style="fill: none; stroke: #1f77b4; stroke-width: 1.5; stroke-linecap: square"/>
    <defs>
     <path id="mea8eb18e69" d="M 0 3 
C 0.795609 3 1.55874 2.683901 2.12132 2.12132 
C 2.683901 1.55874 3 0.795609 3 0 
C 3 -0.795609 2.683901 -1.55874 2.12132 -2.12132 
C 1.55874 -2.683901 0.795609 -3 0 -3 
C -0.795609 -3 -1.55874 -2.683901 -2.12132 -2.12132 
C -2.683901 -1.55874 -3 -0.795609 -3 0 
C -3 0.795609 -2.683901 1.55874 -2.12132 2.12132 
C -1.55874 2.683901 -0.795609 3 0 3 
z
" style="stroke: #1f77b4"/>
    </defs>
    <g clip-path="url(#pe1bd024f5d)">
     <use xlink:href="#mea8eb18e69" x="96.253352" y="228.079943" style="fill: #1f77b4; stroke: #1f77b4"/>
     <use xlink:href="#mea8eb18e69" x="102.095317" y="228.079943" style="fill: #1f77b4; stroke: #1f77b4"/>
     <use xlink:href="#mea8eb18e69" x="107.937282" y="228.079943" style="fill: #1f77b4; stroke: #1f77b4"/>
     <use xlink:href="#mea8eb18e69" x="113.779248" y="228.079943" style="fill: #1f77b4; stroke: #1f77b4"/>
     <use xlink:href="#mea8eb18e69" x="119.621213" y="228.079943" style="fill: #1f77b4; stroke: #1f77b4"/>
     <use xlink:href="#mea8eb18e69" x="125.463178" y="228.079943" style="fill: #1f77b4; stroke: #1f77b4"/>
     <use xlink:href="#mea8eb18e69" x="131.305143" y="228.079943" style="fill: #1f77b4; stroke: #1f77b4"/>
     <use xlink:href="#mea8eb18e69" x="137.147108" y="228.079943" style="fill: #1f77b4; stroke: #1f77b4"/>
     <use xlink:href="#mea8eb18e69" x="142.989073" y="228.079943" style="fill: #1f77b4; stroke: #1f77b4"/>
     <use xlink:href="#mea8eb18e69" x="148.831038" y="228.079943" style="fill: #1f77b4; stroke: #1f77b4"/>
     <use xlink:href="#mea8eb18e69" x="154.673003" y="228.079943" style="fill: #1f77b4; stroke: #1f77b4"/>
     <use xlink:href="#mea8eb18e69" x="160.514968" y="228.079943" style="fill: #1f77b4; stroke: #1f77b4"/>
     <use xlink:href="#mea8eb18e69" x="166.356934" y="228.079943" style="fill: #1f77b4; stroke: #1f77b4"/>
     <use xlink:href="#mea8eb18e69" x="172.198899" y="228.079943" style="fill: #1f77b4; stroke: #1f77b4"/>
     <use xlink:href="#mea8eb18e69" x="178.040864" y="228.079943" style="fill: #1f77b4; stroke: #1f77b4"/>
     <use xlink:href="#mea8eb18e69" x="183.882829" y="228.079943" style="fill: #1f77b4; stroke: #1f77b4"/>
     <use xlink:href="#mea8eb18e69" x="189.724794" y="228.079943" style="fill: #1f77b4; stroke: #1f77b4"/>
     <use xlink:href="#mea8eb18e69" x="195.566759" y="228.079943" style="fill: #1f77b4; stroke: #1f77b4"/>
     <use xlink:href="#mea8eb18e69" x="201.408724" y="228.079943" style="fill: #1f77b4; stroke: #1f77b4"/>
     <use xlink:href="#mea8eb18e69" x="207.250689" y="228.079943" style="fill: #1f77b4; stroke: #1f77b4"/>
     <use xlink:href="#mea8eb18e69" x="213.092654" y="228.079943" style="fill: #1f77b4; stroke: #1f77b4"/>
     <use xlink:href="#mea8eb18e69" x="218.934619" y="228.079943" style="fill: #1f77b4; stroke: #1f77b4"/>
     <use xlink:href="#mea8eb18e69" x="224.776585" y="228.079943" style="fill: #1f77b4; stroke: #1f77b4"/>
     <use xlink:href="#mea8eb18e69" x="230.61855" y="228.079943" style="fill: #1f77b4; stroke: #1f77b4"/>
     <use xlink:href="#mea8eb18e69" x="236.460515" y="228.079943" style="fill: #1f77b4; stroke: #1f77b4"/>
     <use xlink:href="#mea8eb18e69" x="242.30248" y="228.079943" style="fill: #1f77b4; stroke: #1f77b4"/>
     <use xlink:href="#mea8eb18e69" x="248.144445" y="228.079943" style="fill: #1f77b4; stroke: #1f77b4"/>
     <use xlink:href="#mea8eb18e69" x="253.98641" y="228.079943" style="fill: #1f77b4; stroke: #1f77b4"/>
     <use xlink:href="#mea8eb18e69" x="259.828375" y="228.079943" style="fill: #1f77b4; stroke: #1f77b4"/>
     <use xlink:href="#mea8eb18e69" x="265.67034" y="228.079943" style="fill: #1f77b4; stroke: #1f77b4"/>
     <use xlink:href="#mea8eb18e69" x="271.512305" y="228.079943" style="fill: #1f77b4; stroke: #1f77b4"/>
     <use xlink:href="#mea8eb18e69" x="277.354271" y="228.079943" style="fill: #1f77b4; stroke: #1f77b4"/>
     <use xlink:href="#mea8eb18e69" x="283.196236" y="228.079943" style="fill: #1f77b4; stroke: #1f77b4"/>
     <use xlink:href="#mea8eb18e69" x="289.038201" y="228.079943" style="fill: #1f77b4; stroke: #1f77b4"/>
     <use xlink:href="#mea8eb18e69" x="294.880166" y="228.079943" style="fill: #1f77b4; stroke: #1f77b4"/>
     <use xlink:href="#mea8eb18e69" x="300.722131" y="228.079943" style="fill: #1f77b4; stroke: #1f77b4"/>
     <use xlink:href="#mea8eb18e69" x="306.564096" y="228.079943" style="fill: #1f77b4; stroke: #1f77b4"/>
     <use xlink:href="#mea8eb18e69" x="312.406061" y="228.079943" style="fill: #1f77b4; stroke: #1f77b4"/>
     <use xlink:href="#mea8eb18e69" x="318.248026" y="228.079943" style="fill: #1f77b4; stroke: #1f77b4"/>
     <use xlink:href="#mea8eb18e69" x="324.089991" y="228.079943" style="fill: #1f77b4; stroke: #1f77b4"/>
     <use xlink:href="#mea8eb18e69" x="329.931956" y="228.079943" style="fill: #1f77b4; stroke: #1f77b4"/>
     <use xlink:href="#mea8eb18e69" x="335.773922" y="228.079943" style="fill: #1f77b4; stroke: #1f77b4"/>
     <use xlink:href="#mea8eb18e69" x="341.615887" y="228.079943" style="fill: #1f77b4; stroke: #1f77b4"/>
     <use xlink:href="#mea8eb18e69" x="347.457852" y="228.079943" style="fill: #1f77b4; stroke: #1f77b4"/>
     <use xlink:href="#mea8eb18e69" x="353.299817" y="228.079943" style="fill: #1f77b4; stroke: #1f77b4"/>
     <use xlink:href="#mea8eb18e69" x="359.141782" y="228.079943" style="fill: #1f77b4; stroke: #1f77b4"/>
     <use xlink:href="#mea8eb18e69" x="364.983747" y="228.079943" style="fill: #1f77b4; stroke: #1f77b4"/>
     <use xlink:href="#mea8eb18e69" x="370.825712" y="228.079943" style="fill: #1f77b4; stroke: #1f77b4"/>
     <use xlink:href="#mea8eb18e69" x="376.667677" y="228.079943" style="fill: #1f77b4; stroke: #1f77b4"/>
     <use xlink:href="#mea8eb18e69" x="382.509642" y="228.079943" style="fill: #1f77b4; stroke: #1f77b4"/>
     <use xlink:href="#mea8eb18e69" x="388.351608" y="228.079943" style="fill: #1f77b4; stroke: #1f77b4"/>
     <use xlink:href="#mea8eb18e69" x="394.193573" y="228.079943" style="fill: #1f77b4; stroke: #1f77b4"/>
     <use xlink:href="#mea8eb18e69" x="400.035538" y="228.079943" style="fill: #1f77b4; stroke: #1f77b4"/>
     <use xlink:href="#mea8eb18e69" x="405.877503" y="228.079943" style="fill: #1f77b4; stroke: #1f77b4"/>
     <use xlink:href="#mea8eb18e69" x="411.719468" y="228.079943" style="fill: #1f77b4; stroke: #1f77b4"/>
     <use xlink:href="#mea8eb18e69" x="417.561433" y="228.079943" style="fill: #1f77b4; stroke: #1f77b4"/>
     <use xlink:href="#mea8eb18e69" x="423.403398" y="228.079943" style="fill: #1f77b4; stroke: #1f77b4"/>
     <use xlink:href="#mea8eb18e69" x="429.245363" y="228.079943" style="fill: #1f77b4; stroke: #1f77b4"/>
     <use xlink:href="#mea8eb18e69" x="435.087328" y="228.079943" style="fill: #1f77b4; stroke: #1f77b4"/>
     <use xlink:href="#mea8eb18e69" x="440.929294" y="228.079943" style="fill: #1f77b4; stroke: #1f77b4"/>
     <use xlink:href="#mea8eb18e69" x="446.771259" y="228.079943" style="fill: #1f77b4; stroke: #1f77b4"/>
     <use xlink:href="#mea8eb18e69" x="452.613224" y="228.079943" style="fill: #1f77b4; stroke: #1f77b4"/>
     <use xlink:href="#mea8eb18e69" x="458.455189" y="228.079943" style="fill: #1f77b4; stroke: #1f77b4"/>
     <use xlink:href="#mea8eb18e69" x="464.297154" y="228.079943" style="fill: #1f77b4; stroke: #1f77b4"/>
     <use xlink:href="#mea8eb18e69" x="470.139119" y="228.079943" style="fill: #1f77b4; stroke: #1f77b4"/>
     <use xlink:href="#mea8eb18e69" x="475.981084" y="228.079943" style="fill: #1f77b4; stroke: #1f77b4"/>
     <use xlink:href="#mea8eb18e69" x="481.823049" y="228.079943" style="fill: #1f77b4; stroke: #1f77b4"/>
     <use xlink:href="#mea8eb18e69" x="487.665014" y="228.079943" style="fill: #1f77b4; stroke: #1f77b4"/>
     <use xlink:href="#mea8eb18e69" x="493.506979" y="228.079943" style="fill: #1f77b4; stroke: #1f77b4"/>
     <use xlink:href="#mea8eb18e69" x="499.348945" y="228.079943" style="fill: #1f77b4; stroke: #1f77b4"/>
     <use xlink:href="#mea8eb18e69" x="505.19091" y="228.079943" style="fill: #1f77b4; stroke: #1f77b4"/>
     <use xlink:href="#mea8eb18e69" x="511.032875" y="228.079943" style="fill: #1f77b4; stroke: #1f77b4"/>
     <use xlink:href="#mea8eb18e69" x="516.87484" y="228.079943" style="fill: #1f77b4; stroke: #1f77b4"/>
     <use xlink:href="#mea8eb18e69" x="522.716805" y="228.079943" style="fill: #1f77b4; stroke: #1f77b4"/>
     <use xlink:href="#mea8eb18e69" x="528.55877" y="228.079943" style="fill: #1f77b4; stroke: #1f77b4"/>
     <use xlink:href="#mea8eb18e69" x="534.400735" y="228.079943" style="fill: #1f77b4; stroke: #1f77b4"/>
     <use xlink:href="#mea8eb18e69" x="540.2427" y="228.079943" style="fill: #1f77b4; stroke: #1f77b4"/>
     <use xlink:href="#mea8eb18e69" x="546.084665" y="228.079943" style="fill: #1f77b4; stroke: #1f77b4"/>
     <use xlink:href="#mea8eb18e69" x="551.926631" y="228.079943" style="fill: #1f77b4; stroke: #1f77b4"/>
     <use xlink:href="#mea8eb18e69" x="557.768596" y="228.079943" style="fill: #1f77b4; stroke: #1f77b4"/>
     <use xlink:href="#mea8eb18e69" x="563.610561" y="228.079943" style="fill: #1f77b4; stroke: #1f77b4"/>
     <use xlink:href="#mea8eb18e69" x="569.452526" y="228.079943" style="fill: #1f77b4; stroke: #1f77b4"/>
     <use xlink:href="#mea8eb18e69" x="575.294491" y="228.079943" style="fill: #1f77b4; stroke: #1f77b4"/>
     <use xlink:href="#mea8eb18e69" x="581.136456" y="228.079943" style="fill: #1f77b4; stroke: #1f77b4"/>
     <use xlink:href="#mea8eb18e69" x="586.978421" y="228.079943" style="fill: #1f77b4; stroke: #1f77b4"/>
     <use xlink:href="#mea8eb18e69" x="592.820386" y="228.079943" style="fill: #1f77b4; stroke: #1f77b4"/>
     <use xlink:href="#mea8eb18e69" x="598.662351" y="228.079943" style="fill: #1f77b4; stroke: #1f77b4"/>
     <use xlink:href="#mea8eb18e69" x="604.504316" y="228.079943" style="fill: #1f77b4; stroke: #1f77b4"/>
     <use xlink:href="#mea8eb18e69" x="610.346282" y="228.079943" style="fill: #1f77b4; stroke: #1f77b4"/>
     <use xlink:href="#mea8eb18e69" x="616.188247" y="228.079943" style="fill: #1f77b4; stroke: #1f77b4"/>
     <use xlink:href="#mea8eb18e69" x="622.030212" y="228.079943" style="fill: #1f77b4; stroke: #1f77b4"/>
     <use xlink:href="#mea8eb18e69" x="627.872177" y="228.079943" style="fill: #1f77b4; stroke: #1f77b4"/>
     <use xlink:href="#mea8eb18e69" x="633.714142" y="228.079943" style="fill: #1f77b4; stroke: #1f77b4"/>
     <use xlink:href="#mea8eb18e69" x="639.556107" y="228.079943" style="fill: #1f77b4; stroke: #1f77b4"/>
     <use xlink:href="#mea8eb18e69" x="645.398072" y="228.079943" style="fill: #1f77b4; stroke: #1f77b4"/>
     <use xlink:href="#mea8eb18e69" x="651.240037" y="228.079943" style="fill: #1f77b4; stroke: #1f77b4"/>
     <use xlink:href="#mea8eb18e69" x="657.082002" y="228.079943" style="fill: #1f77b4; stroke: #1f77b4"/>
     <use xlink:href="#mea8eb18e69" x="662.923968" y="228.079943" style="fill: #1f77b4; stroke: #1f77b4"/>
     <use xlink:href="#mea8eb18e69" x="668.765933" y="228.079943" style="fill: #1f77b4; stroke: #1f77b4"/>
     <use xlink:href="#mea8eb18e69" x="674.607898" y="228.079943" style="fill: #1f77b4; stroke: #1f77b4"/>
    </g>
   </g>
   <g id="line2d_28">
    <path d="M 96.253352 132.429877 
L 102.095317 130.982071 
L 107.937282 228.079943 
L 113.779248 228.079943 
L 119.621213 132.481148 
L 125.463178 130.164111 
L 131.305143 129.98768 
L 137.147108 228.079943 
L 142.989073 228.079943 
L 148.831038 132.772013 
L 154.673003 228.079943 
L 160.514968 35.690804 
L 166.356934 129.71149 
L 172.198899 130.683208 
L 178.040864 228.079943 
L 183.882829 132.751752 
L 189.724794 130.889021 
L 195.566759 133.695092 
L 201.408724 228.079943 
L 207.250689 35.327686 
L 213.092654 132.197638 
L 218.934619 228.079943 
L 224.776585 132.266373 
L 230.61855 228.079943 
L 236.460515 36.868286 
L 242.30248 228.079943 
L 248.144445 130.526358 
L 253.98641 32.116307 
L 259.828375 228.079943 
L 265.67034 35.124228 
L 271.512305 228.079943 
L 277.354271 132.158689 
L 283.196236 33.840951 
L 289.038201 129.604998 
L 294.880166 228.079943 
L 300.722131 131.000941 
L 306.564096 130.805498 
L 312.406061 134.647919 
L 318.248026 131.323901 
L 324.089991 228.079943 
L 329.931956 130.403949 
L 335.773922 134.138325 
L 341.615887 228.079943 
L 347.457852 129.03287 
L 353.299817 228.079943 
L 359.141782 228.079943 
L 364.983747 128.847962 
L 370.825712 228.079943 
L 376.667677 132.174612 
L 382.509642 131.730243 
L 388.351608 129.525401 
L 394.193573 228.079943 
L 400.035538 133.412156 
L 405.877503 127.21837 
L 411.719468 228.079943 
L 417.561433 228.079943 
L 423.403398 228.079943 
L 429.245363 228.079943 
L 435.087328 133.308894 
L 440.929294 228.079943 
L 446.771259 136.128938 
L 452.613224 131.9604 
L 458.455189 131.06129 
L 464.297154 131.992746 
L 470.139119 130.955515 
L 475.981084 131.904897 
L 481.823049 131.261917 
L 487.665014 133.499299 
L 493.506979 228.079943 
L 499.348945 228.079943 
L 505.19091 228.079943 
L 511.032875 132.473844 
L 516.87484 228.079943 
L 522.716805 228.079943 
L 528.55877 130.783757 
L 534.400735 130.967868 
L 540.2427 131.152977 
L 546.084665 129.927056 
L 551.926631 130.065528 
L 557.768596 131.16518 
L 563.610561 128.089729 
L 569.452526 35.388369 
L 575.294491 228.079943 
L 581.136456 228.079943 
L 586.978421 228.079943 
L 592.820386 228.079943 
L 598.662351 131.737197 
L 604.504316 131.63272 
L 610.346282 36.510081 
L 616.188247 36.879844 
L 622.030212 133.719839 
L 627.872177 132.936066 
L 633.714142 228.079943 
L 639.556107 228.079943 
L 645.398072 130.027635 
L 651.240037 228.079943 
L 657.082002 132.317284 
L 662.923968 228.079943 
L 668.765933 131.464739 
L 674.607898 131.730581 
" clip-path="url(#pe1bd024f5d)" style="fill: none; stroke: #ff7f0e; stroke-width: 1.5; stroke-linecap: square"/>
    <defs>
     <path id="mf32cf1a565" d="M 0 3 
C 0.795609 3 1.55874 2.683901 2.12132 2.12132 
C 2.683901 1.55874 3 0.795609 3 0 
C 3 -0.795609 2.683901 -1.55874 2.12132 -2.12132 
C 1.55874 -2.683901 0.795609 -3 0 -3 
C -0.795609 -3 -1.55874 -2.683901 -2.12132 -2.12132 
C -2.683901 -1.55874 -3 -0.795609 -3 0 
C -3 0.795609 -2.683901 1.55874 -2.12132 2.12132 
C -1.55874 2.683901 -0.795609 3 0 3 
z
" style="stroke: #ff7f0e"/>
    </defs>
    <g clip-path="url(#pe1bd024f5d)">
     <use xlink:href="#mf32cf1a565" x="96.253352" y="132.429877" style="fill: #ff7f0e; stroke: #ff7f0e"/>
     <use xlink:href="#mf32cf1a565" x="102.095317" y="130.982071" style="fill: #ff7f0e; stroke: #ff7f0e"/>
     <use xlink:href="#mf32cf1a565" x="107.937282" y="228.079943" style="fill: #ff7f0e; stroke: #ff7f0e"/>
     <use xlink:href="#mf32cf1a565" x="113.779248" y="228.079943" style="fill: #ff7f0e; stroke: #ff7f0e"/>
     <use xlink:href="#mf32cf1a565" x="119.621213" y="132.481148" style="fill: #ff7f0e; stroke: #ff7f0e"/>
     <use xlink:href="#mf32cf1a565" x="125.463178" y="130.164111" style="fill: #ff7f0e; stroke: #ff7f0e"/>
     <use xlink:href="#mf32cf1a565" x="131.305143" y="129.98768" style="fill: #ff7f0e; stroke: #ff7f0e"/>
     <use xlink:href="#mf32cf1a565" x="137.147108" y="228.079943" style="fill: #ff7f0e; stroke: #ff7f0e"/>
     <use xlink:href="#mf32cf1a565" x="142.989073" y="228.079943" style="fill: #ff7f0e; stroke: #ff7f0e"/>
     <use xlink:href="#mf32cf1a565" x="148.831038" y="132.772013" style="fill: #ff7f0e; stroke: #ff7f0e"/>
     <use xlink:href="#mf32cf1a565" x="154.673003" y="228.079943" style="fill: #ff7f0e; stroke: #ff7f0e"/>
     <use xlink:href="#mf32cf1a565" x="160.514968" y="35.690804" style="fill: #ff7f0e; stroke: #ff7f0e"/>
     <use xlink:href="#mf32cf1a565" x="166.356934" y="129.71149" style="fill: #ff7f0e; stroke: #ff7f0e"/>
     <use xlink:href="#mf32cf1a565" x="172.198899" y="130.683208" style="fill: #ff7f0e; stroke: #ff7f0e"/>
     <use xlink:href="#mf32cf1a565" x="178.040864" y="228.079943" style="fill: #ff7f0e; stroke: #ff7f0e"/>
     <use xlink:href="#mf32cf1a565" x="183.882829" y="132.751752" style="fill: #ff7f0e; stroke: #ff7f0e"/>
     <use xlink:href="#mf32cf1a565" x="189.724794" y="130.889021" style="fill: #ff7f0e; stroke: #ff7f0e"/>
     <use xlink:href="#mf32cf1a565" x="195.566759" y="133.695092" style="fill: #ff7f0e; stroke: #ff7f0e"/>
     <use xlink:href="#mf32cf1a565" x="201.408724" y="228.079943" style="fill: #ff7f0e; stroke: #ff7f0e"/>
     <use xlink:href="#mf32cf1a565" x="207.250689" y="35.327686" style="fill: #ff7f0e; stroke: #ff7f0e"/>
     <use xlink:href="#mf32cf1a565" x="213.092654" y="132.197638" style="fill: #ff7f0e; stroke: #ff7f0e"/>
     <use xlink:href="#mf32cf1a565" x="218.934619" y="228.079943" style="fill: #ff7f0e; stroke: #ff7f0e"/>
     <use xlink:href="#mf32cf1a565" x="224.776585" y="132.266373" style="fill: #ff7f0e; stroke: #ff7f0e"/>
     <use xlink:href="#mf32cf1a565" x="230.61855" y="228.079943" style="fill: #ff7f0e; stroke: #ff7f0e"/>
     <use xlink:href="#mf32cf1a565" x="236.460515" y="36.868286" style="fill: #ff7f0e; stroke: #ff7f0e"/>
     <use xlink:href="#mf32cf1a565" x="242.30248" y="228.079943" style="fill: #ff7f0e; stroke: #ff7f0e"/>
     <use xlink:href="#mf32cf1a565" x="248.144445" y="130.526358" style="fill: #ff7f0e; stroke: #ff7f0e"/>
     <use xlink:href="#mf32cf1a565" x="253.98641" y="32.116307" style="fill: #ff7f0e; stroke: #ff7f0e"/>
     <use xlink:href="#mf32cf1a565" x="259.828375" y="228.079943" style="fill: #ff7f0e; stroke: #ff7f0e"/>
     <use xlink:href="#mf32cf1a565" x="265.67034" y="35.124228" style="fill: #ff7f0e; stroke: #ff7f0e"/>
     <use xlink:href="#mf32cf1a565" x="271.512305" y="228.079943" style="fill: #ff7f0e; stroke: #ff7f0e"/>
     <use xlink:href="#mf32cf1a565" x="277.354271" y="132.158689" style="fill: #ff7f0e; stroke: #ff7f0e"/>
     <use xlink:href="#mf32cf1a565" x="283.196236" y="33.840951" style="fill: #ff7f0e; stroke: #ff7f0e"/>
     <use xlink:href="#mf32cf1a565" x="289.038201" y="129.604998" style="fill: #ff7f0e; stroke: #ff7f0e"/>
     <use xlink:href="#mf32cf1a565" x="294.880166" y="228.079943" style="fill: #ff7f0e; stroke: #ff7f0e"/>
     <use xlink:href="#mf32cf1a565" x="300.722131" y="131.000941" style="fill: #ff7f0e; stroke: #ff7f0e"/>
     <use xlink:href="#mf32cf1a565" x="306.564096" y="130.805498" style="fill: #ff7f0e; stroke: #ff7f0e"/>
     <use xlink:href="#mf32cf1a565" x="312.406061" y="134.647919" style="fill: #ff7f0e; stroke: #ff7f0e"/>
     <use xlink:href="#mf32cf1a565" x="318.248026" y="131.323901" style="fill: #ff7f0e; stroke: #ff7f0e"/>
     <use xlink:href="#mf32cf1a565" x="324.089991" y="228.079943" style="fill: #ff7f0e; stroke: #ff7f0e"/>
     <use xlink:href="#mf32cf1a565" x="329.931956" y="130.403949" style="fill: #ff7f0e; stroke: #ff7f0e"/>
     <use xlink:href="#mf32cf1a565" x="335.773922" y="134.138325" style="fill: #ff7f0e; stroke: #ff7f0e"/>
     <use xlink:href="#mf32cf1a565" x="341.615887" y="228.079943" style="fill: #ff7f0e; stroke: #ff7f0e"/>
     <use xlink:href="#mf32cf1a565" x="347.457852" y="129.03287" style="fill: #ff7f0e; stroke: #ff7f0e"/>
     <use xlink:href="#mf32cf1a565" x="353.299817" y="228.079943" style="fill: #ff7f0e; stroke: #ff7f0e"/>
     <use xlink:href="#mf32cf1a565" x="359.141782" y="228.079943" style="fill: #ff7f0e; stroke: #ff7f0e"/>
     <use xlink:href="#mf32cf1a565" x="364.983747" y="128.847962" style="fill: #ff7f0e; stroke: #ff7f0e"/>
     <use xlink:href="#mf32cf1a565" x="370.825712" y="228.079943" style="fill: #ff7f0e; stroke: #ff7f0e"/>
     <use xlink:href="#mf32cf1a565" x="376.667677" y="132.174612" style="fill: #ff7f0e; stroke: #ff7f0e"/>
     <use xlink:href="#mf32cf1a565" x="382.509642" y="131.730243" style="fill: #ff7f0e; stroke: #ff7f0e"/>
     <use xlink:href="#mf32cf1a565" x="388.351608" y="129.525401" style="fill: #ff7f0e; stroke: #ff7f0e"/>
     <use xlink:href="#mf32cf1a565" x="394.193573" y="228.079943" style="fill: #ff7f0e; stroke: #ff7f0e"/>
     <use xlink:href="#mf32cf1a565" x="400.035538" y="133.412156" style="fill: #ff7f0e; stroke: #ff7f0e"/>
     <use xlink:href="#mf32cf1a565" x="405.877503" y="127.21837" style="fill: #ff7f0e; stroke: #ff7f0e"/>
     <use xlink:href="#mf32cf1a565" x="411.719468" y="228.079943" style="fill: #ff7f0e; stroke: #ff7f0e"/>
     <use xlink:href="#mf32cf1a565" x="417.561433" y="228.079943" style="fill: #ff7f0e; stroke: #ff7f0e"/>
     <use xlink:href="#mf32cf1a565" x="423.403398" y="228.079943" style="fill: #ff7f0e; stroke: #ff7f0e"/>
     <use xlink:href="#mf32cf1a565" x="429.245363" y="228.079943" style="fill: #ff7f0e; stroke: #ff7f0e"/>
     <use xlink:href="#mf32cf1a565" x="435.087328" y="133.308894" style="fill: #ff7f0e; stroke: #ff7f0e"/>
     <use xlink:href="#mf32cf1a565" x="440.929294" y="228.079943" style="fill: #ff7f0e; stroke: #ff7f0e"/>
     <use xlink:href="#mf32cf1a565" x="446.771259" y="136.128938" style="fill: #ff7f0e; stroke: #ff7f0e"/>
     <use xlink:href="#mf32cf1a565" x="452.613224" y="131.9604" style="fill: #ff7f0e; stroke: #ff7f0e"/>
     <use xlink:href="#mf32cf1a565" x="458.455189" y="131.06129" style="fill: #ff7f0e; stroke: #ff7f0e"/>
     <use xlink:href="#mf32cf1a565" x="464.297154" y="131.992746" style="fill: #ff7f0e; stroke: #ff7f0e"/>
     <use xlink:href="#mf32cf1a565" x="470.139119" y="130.955515" style="fill: #ff7f0e; stroke: #ff7f0e"/>
     <use xlink:href="#mf32cf1a565" x="475.981084" y="131.904897" style="fill: #ff7f0e; stroke: #ff7f0e"/>
     <use xlink:href="#mf32cf1a565" x="481.823049" y="131.261917" style="fill: #ff7f0e; stroke: #ff7f0e"/>
     <use xlink:href="#mf32cf1a565" x="487.665014" y="133.499299" style="fill: #ff7f0e; stroke: #ff7f0e"/>
     <use xlink:href="#mf32cf1a565" x="493.506979" y="228.079943" style="fill: #ff7f0e; stroke: #ff7f0e"/>
     <use xlink:href="#mf32cf1a565" x="499.348945" y="228.079943" style="fill: #ff7f0e; stroke: #ff7f0e"/>
     <use xlink:href="#mf32cf1a565" x="505.19091" y="228.079943" style="fill: #ff7f0e; stroke: #ff7f0e"/>
     <use xlink:href="#mf32cf1a565" x="511.032875" y="132.473844" style="fill: #ff7f0e; stroke: #ff7f0e"/>
     <use xlink:href="#mf32cf1a565" x="516.87484" y="228.079943" style="fill: #ff7f0e; stroke: #ff7f0e"/>
     <use xlink:href="#mf32cf1a565" x="522.716805" y="228.079943" style="fill: #ff7f0e; stroke: #ff7f0e"/>
     <use xlink:href="#mf32cf1a565" x="528.55877" y="130.783757" style="fill: #ff7f0e; stroke: #ff7f0e"/>
     <use xlink:href="#mf32cf1a565" x="534.400735" y="130.967868" style="fill: #ff7f0e; stroke: #ff7f0e"/>
     <use xlink:href="#mf32cf1a565" x="540.2427" y="131.152977" style="fill: #ff7f0e; stroke: #ff7f0e"/>
     <use xlink:href="#mf32cf1a565" x="546.084665" y="129.927056" style="fill: #ff7f0e; stroke: #ff7f0e"/>
     <use xlink:href="#mf32cf1a565" x="551.926631" y="130.065528" style="fill: #ff7f0e; stroke: #ff7f0e"/>
     <use xlink:href="#mf32cf1a565" x="557.768596" y="131.16518" style="fill: #ff7f0e; stroke: #ff7f0e"/>
     <use xlink:href="#mf32cf1a565" x="563.610561" y="128.089729" style="fill: #ff7f0e; stroke: #ff7f0e"/>
     <use xlink:href="#mf32cf1a565" x="569.452526" y="35.388369" style="fill: #ff7f0e; stroke: #ff7f0e"/>
     <use xlink:href="#mf32cf1a565" x="575.294491" y="228.079943" style="fill: #ff7f0e; stroke: #ff7f0e"/>
     <use xlink:href="#mf32cf1a565" x="581.136456" y="228.079943" style="fill: #ff7f0e; stroke: #ff7f0e"/>
     <use xlink:href="#mf32cf1a565" x="586.978421" y="228.079943" style="fill: #ff7f0e; stroke: #ff7f0e"/>
     <use xlink:href="#mf32cf1a565" x="592.820386" y="228.079943" style="fill: #ff7f0e; stroke: #ff7f0e"/>
     <use xlink:href="#mf32cf1a565" x="598.662351" y="131.737197" style="fill: #ff7f0e; stroke: #ff7f0e"/>
     <use xlink:href="#mf32cf1a565" x="604.504316" y="131.63272" style="fill: #ff7f0e; stroke: #ff7f0e"/>
     <use xlink:href="#mf32cf1a565" x="610.346282" y="36.510081" style="fill: #ff7f0e; stroke: #ff7f0e"/>
     <use xlink:href="#mf32cf1a565" x="616.188247" y="36.879844" style="fill: #ff7f0e; stroke: #ff7f0e"/>
     <use xlink:href="#mf32cf1a565" x="622.030212" y="133.719839" style="fill: #ff7f0e; stroke: #ff7f0e"/>
     <use xlink:href="#mf32cf1a565" x="627.872177" y="132.936066" style="fill: #ff7f0e; stroke: #ff7f0e"/>
     <use xlink:href="#mf32cf1a565" x="633.714142" y="228.079943" style="fill: #ff7f0e; stroke: #ff7f0e"/>
     <use xlink:href="#mf32cf1a565" x="639.556107" y="228.079943" style="fill: #ff7f0e; stroke: #ff7f0e"/>
     <use xlink:href="#mf32cf1a565" x="645.398072" y="130.027635" style="fill: #ff7f0e; stroke: #ff7f0e"/>
     <use xlink:href="#mf32cf1a565" x="651.240037" y="228.079943" style="fill: #ff7f0e; stroke: #ff7f0e"/>
     <use xlink:href="#mf32cf1a565" x="657.082002" y="132.317284" style="fill: #ff7f0e; stroke: #ff7f0e"/>
     <use xlink:href="#mf32cf1a565" x="662.923968" y="228.079943" style="fill: #ff7f0e; stroke: #ff7f0e"/>
     <use xlink:href="#mf32cf1a565" x="668.765933" y="131.464739" style="fill: #ff7f0e; stroke: #ff7f0e"/>
     <use xlink:href="#mf32cf1a565" x="674.607898" y="131.730581" style="fill: #ff7f0e; stroke: #ff7f0e"/>
    </g>
   </g>
   <g id="patch_3">
    <path d="M 67.335625 237.878125 
L 67.335625 22.318125 
" style="fill: none; stroke: #000000; stroke-width: 0.8; stroke-linejoin: miter; stroke-linecap: square"/>
   </g>
   <g id="patch_4">
    <path d="M 703.525625 237.878125 
L 703.525625 22.318125 
" style="fill: none; stroke: #000000; stroke-width: 0.8; stroke-linejoin: miter; stroke-linecap: square"/>
   </g>
   <g id="patch_5">
    <path d="M 67.335625 237.878125 
L 703.525625 237.878125 
" style="fill: none; stroke: #000000; stroke-width: 0.8; stroke-linejoin: miter; stroke-linecap: square"/>
   </g>
   <g id="patch_6">
    <path d="M 67.335625 22.318125 
L 703.525625 22.318125 
" style="fill: none; stroke: #000000; stroke-width: 0.8; stroke-linejoin: miter; stroke-linecap: square"/>
   </g>
   <g id="text_16">
    <text style="font-size: 12px; font-family: 'DejaVu Sans', 'Bitstream Vera Sans', 'Computer Modern Sans Serif', 'Lucida Grande', 'Verdana', 'Geneva', 'Lucid', 'Arial', 'Helvetica', 'Avant Garde', sans-serif; text-anchor: middle" x="385.430625" y="16.318125" transform="rotate(-0 385.430625 16.318125)">AVG_L_QUEUE_DELAY — avg queue delay per run</text>
   </g>
   <g id="legend_1">
    <g id="patch_7">
     <path d="M 334.107891 63.41 
L 436.753359 63.41 
Q 438.953359 63.41 438.953359 61.21 
L 438.953359 30.018125 
Q 438.953359 27.818125 436.753359 27.818125 
L 334.107891 27.818125 
Q 331.907891 27.818125 331.907891 30.018125 
L 331.907891 61.21 
Q 331.907891 63.41 334.107891 63.41 
z
" style="fill: #ffffff; opacity: 0.8; stroke: #cccccc; stroke-linejoin: miter"/>
    </g>
    <g id="line2d_29">
     <path d="M 336.307891 36.726406 
L 347.307891 36.726406 
L 358.307891 36.726406 
" style="fill: none; stroke: #1f77b4; stroke-width: 1.5; stroke-linecap: square"/>
     <g>
      <use xlink:href="#mea8eb18e69" x="347.307891" y="36.726406" style="fill: #1f77b4; stroke: #1f77b4"/>
     </g>
    </g>
    <g id="text_17">
     <text style="font-size: 11px; font-family: 'DejaVu Sans', 'Bitstream Vera Sans', 'Computer Modern Sans Serif', 'Lucida Grande', 'Verdana', 'Geneva', 'Lucid', 'Arial', 'Helvetica', 'Avant Garde', sans-serif; text-anchor: start" x="367.107891" y="40.576406" transform="rotate(-0 367.107891 40.576406)">qdisc (linux)</text>
    </g>
    <g id="line2d_30">
     <path d="M 336.307891 52.872344 
L 347.307891 52.872344 
L 358.307891 52.872344 
" style="fill: none; stroke: #ff7f0e; stroke-width: 1.5; stroke-linecap: square"/>
     <g>
      <use xlink:href="#mf32cf1a565" x="347.307891" y="52.872344" style="fill: #ff7f0e; stroke: #ff7f0e"/>
     </g>
    </g>
    <g id="text_18">
     <text style="font-size: 11px; font-family: 'DejaVu Sans', 'Bitstream Vera Sans', 'Computer Modern Sans Serif', 'Lucida Grande', 'Verdana', 'Geneva', 'Lucid', 'Arial', 'Helvetica', 'Avant Garde', sans-serif; text-anchor: start" x="367.107891" y="56.722344" transform="rotate(-0 367.107891 56.722344)">mahimahi</text>
    </g>
   </g>
  </g>
 </g>
 <defs>
  <clipPath id="pe1bd024f5d">
   <rect x="67.335625" y="22.318125" width="636.19" height="215.56"/>
  </clipPath>
 </defs>
</svg>
