<?xml version="1.0" encoding="utf-8" standalone="no"?>
<!DOCTYPE svg PUBLIC "-//W3C//DTD SVG 1.1//EN"
  "http://www.w3.org/Graphics/SVG/1.1/DTD/svg11.dtd">
<svg xmlns:xlink="http://www.w3.org/1999/xlink" width="710.725625pt" height="277.37pt" viewBox="0 0 710.725625 277.37" xmlns="http://www.w3.org/2000/svg" version="1.1">
 <metadata>
  <rdf:RDF xmlns:dc="http://purl.org/dc/elements/1.1/" xmlns:cc="http://creativecommons.org/ns#" xmlns:rdf="http://www.w3.org/1999/02/22-rdf-syntax-ns#">
   <cc:Work>
    <dc:type rdf:resource="http://purl.org/dc/dcmitype/StillImage"/>
    <dc:date>2026-02-23T23:18:34.602060</dc:date>
    <dc:format>image/svg+xml</dc:format>
    <dc:creator>
     <cc:Agent>
      <dc:title>Matplotlib v3.10.8, https://matplotlib.org/</dc:title>
     </cc:Agent>
    </dc:creator>
   </cc:Work>
  </rdf:RDF>
 </metadata>
 <defs>
  <style type="text/css">*{stroke-linejoin: round; stroke-linecap: butt}</style>
 </defs>
 <g id="figure_1">
  <g id="patch_1">
   <path d="M 0 277.37 
L 710.725625 277.37 
L 710.725625 0 
L 0 0 
z
" style="fill: #ffffff"/>
  </g>
  <g id="axes_1">
   <g id="patch_2">
    <path d="M 67.335625 237.878125 
L 703.525625 237.878125 
L 703.525625 22.318125 
L 67.335625 22.318125 
z
" style="fill: #ffffff"/>
   </g>
   <g id="matplotlib.axis_1">
    <g id="xtick_1">
     <g id="line2d_1">
      <path d="M 96.253352 237.878125 
L 96.253352 22.318125 
" clip-path="url(#paed652ffe3)" style="fill: none; stroke: #b0b0b0; stroke-opacity: 0.2; stroke-width: 0.8; stroke-linecap: square"/>
     </g>
     <g id="line2d_2">
      <defs>
       <path id="m62cd8b9ef4" d="M 0 0 
L 0 3.5 
" style="stroke: #000000; stroke-width: 0.8"/>
      </defs>
      <g>
       <use xlink:href="#m62cd8b9ef4" x="96.253352" y="237.878125" style="stroke: #000000; stroke-width: 0.8"/>
      </g>
     </g>
     <g id="text_1">
      <text style="font-size: 11px; font-family: 'DejaVu Sans', 'Bitstream Vera Sans', 'Computer Modern Sans Serif', 'Lucida Grande', 'Verdana', 'Geneva', 'Lucid', 'Arial', 'Helvetica', 'Avant Garde', sans-serif; text-anchor: middle" x="96.253352" y="253.236406" transform="rotate(-0 96.253352 253.236406)">0</text>
     </g>
    </g>
    <g id="xtick_2">
     <g id="line2d_3">
      <path d="M 213.092654 237.878125 
L 213.092654 22.318125 
" clip-path="url(#paed652ffe3)" style="fill: none; stroke: #b0b0b0; stroke-opacity: 0.2; stroke-width: 0.8; stroke-linecap: square"/>
     </g>
     <g id="line2d_4">
      <g>
       <use xlink:href="#m62cd8b9ef4" x="213.092654" y="237.878125" style="stroke: #000000; stroke-width: 0.8"/>
      </g>
     </g>
     <g id="text_2">
      <text style="font-size: 11px; font-family: 'DejaVu Sans', 'Bitstream Vera Sans', 'Computer Modern Sans Serif', 'Lucida Grande', 'Verdana', 'Geneva', 'Lucid', 'Arial', 'Helvetica', 'Avant Garde', sans-serif; text-anchor: middle" x="213.092654" y="253.236406" transform="rotate(-0 213.092654 253.236406)">20</text>
     </g>
    </g>
    <g id="xtick_3">
     <g id="line2d_5">
      <path d="M 329.931956 237.878125 
L 329.931956 22.318125 
" clip-path="url(#paed652ffe3)" style="fill: none; stroke: #b0b0b0; stroke-opacity: 0.2; stroke-width: 0.8; stroke-linecap: square"/>
     </g>
     <g id="line2d_6">
      <g>
       <use xlink:href="#m62cd8b9ef4" x="329.931956" y="237.878125" style="stroke: #000000; stroke-width: 0.8"/>
      </g>
     </g>
     <g id="text_3">
      <text style="font-size: 11px; font-family: 'DejaVu Sans', 'Bitstream Vera Sans', 'Computer Modern Sans Serif', 'Lucida Grande', 'Verdana', 'Geneva', 'Lucid', 'Arial', 'Helvetica', 'Avant Garde', sans-serif; text-anchor: middle" x="329.931956" y="253.236406" transform="rotate(-0 329.931956 253.236406)">40</text>
     </g>
    </g>
    <g id="xtick_4">
     <g id="line2d_7">
      <path d="M 446.771259 237.878125 
L 446.771259 22.318125 
" clip-path="url(#paed652ffe3)" style="fill: none; stroke: #b0b0b0; stroke-opacity: 0.2; stroke-width: 0.8; stroke-linecap: square"/>
     </g>
     <g id="line2d_8">
      <g>
       <use xlink:href="#m62cd8b9ef4" x="446.771259" y="237.878125" style="stroke: #000000; stroke-width: 0.8"/>
      </g>
     </g>
     <g id="text_4">
      <text style="font-size: 11px; font-family: 'DejaVu Sans', 'Bitstream Vera Sans', 'Computer Modern Sans Serif', 'Lucida Grande', 'Verdana', 'Geneva', 'Lucid', 'Arial', 'Helvetica', 'Avant Garde', sans-serif; text-anchor: middle" x="446.771259" y="253.236406" transform="rotate(-0 446.771259 253.236406)">60</text>
     </g>
    </g>
    <g id="xtick_5">
     <g id="line2d_9">
      <path d="M 563.610561 237.878125 
L 563.610561 22.318125 
" clip-path="url(#paed652ffe3)" style="fill: none; stroke: #b0b0b0; stroke-opacity: 0.2; stroke-width: 0.8; stroke-linecap: square"/>
     </g>
     <g id="line2d_10">
      <g>
       <use xlink:href="#m62cd8b9ef4" x="563.610561" y="237.878125" style="stroke: #000000; stroke-width: 0.8"/>
      </g>
     </g>
     <g id="text_5">
      <text style="font-size: 11px; font-family: 'DejaVu Sans', 'Bitstream Vera Sans', 'Computer Modern Sans Serif', 'Lucida Grande', 'Verdana', 'Geneva', 'Lucid', 'Arial', 'Helvetica', 'Avant Garde', sans-serif; text-anchor: middle" x="563.610561" y="253.236406" transform="rotate(-0 563.610561 253.236406)">80</text>
     </g>
    </g>
    <g id="xtick_6">
     <g id="line2d_11">
      <path d="M 680.449863 237.878125 
L 680.449863 22.318125 
" clip-path="url(#paed652ffe3)" style="fill: none; stroke: #b0b0b0; stroke-opacity: 0.2; stroke-width: 0.8; stroke-linecap: square"/>
     </g>
     <g id="line2d_12">
      <g>
       <use xlink:href="#m62cd8b9ef4" x="680.449863" y="237.878125" style="stroke: #000000; stroke-width: 0.8"/>
      </g>
     </g>
     <g id="text_6">
      <text style="font-size: 11px; font-family: 'DejaVu Sans', 'Bitstream Vera Sans', 'Computer Modern Sans Serif', 'Lucida Grande', 'Verdana', 'Geneva', 'Lucid', 'Arial', 'Helvetica', 'Avant Garde', sans-serif; text-anchor: middle" x="680.449863" y="253.236406" transform="rotate(-0 680.449863 253.236406)">100</text>
     </g>
    </g>
    <g id="text_7">
     <text style="font-size: 11px; font-family: 'DejaVu Sans', 'Bitstream Vera Sans', 'Computer Modern Sans Serif', 'Lucida Grande', 'Verdana', 'Geneva', 'Lucid', 'Arial', 'Helvetica', 'Avant Garde', sans-serif; text-anchor: middle" x="385.430625" y="267.882344" transform="rotate(-0 385.430625 267.882344)">run index (file order)</text>
    </g>
   </g>
   <g id="matplotlib.axis_2">
    <g id="ytick_1">
     <g id="line2d_13">
      <path d="M 67.335625 228.079943 
L 703.525625 228.079943 
" clip-path="url(#paed652ffe3)" style="fill: none; stroke: #b0b0b0; stroke-opacity: 0.2; stroke-width: 0.8; stroke-linecap: square"/>
     </g>
     <g id="line2d_14">
      <defs>
       <path id="m9c6cd633d0" d="M 0 0 
L -3.5 0 
" style="stroke: #000000; stroke-width: 0.8"/>
      </defs>
      <g>
       <use xlink:href="#m9c6cd633d0" x="67.335625" y="228.079943" style="stroke: #000000; stroke-width: 0.8"/>
      </g>
     </g>
     <g id="text_8">
      <text style="font-size: 11px; font-family: 'DejaVu Sans', 'Bitstream Vera Sans', 'Computer Modern Sans Serif', 'Lucida Grande', 'Verdana', 'Geneva', 'Lucid', 'Arial', 'Helvetica', 'Avant Garde', sans-serif; text-anchor: end" x="60.335625" y="232.259084" transform="rotate(-0 60.335625 232.259084)">0.0000</text>
     </g>
    </g>
    <g id="ytick_2">
     <g id="line2d_15">
      <path d="M 67.335625 196.796935 
L 703.525625 196.796935 
" clip-path="url(#paed652ffe3)" style="fill: none; stroke: #b0b0b0; stroke-opacity: 0.2; stroke-width: 0.8; stroke-linecap: square"/>
     </g>
     <g id="line2d_16">
      <g>
       <use xlink:href="#m9c6cd633d0" x="67.335625" y="196.796935" style="stroke: #000000; stroke-width: 0.8"/>
      </g>
     </g>
     <g id="text_9">
      <text style="font-size: 11px; font-family: 'DejaVu Sans', 'Bitstream Vera Sans', 'Computer Modern Sans Serif', 'Lucida Grande', 'Verdana', 'Geneva', 'Lucid', 'Arial', 'Helvetica', 'Avant Garde', sans-serif; text-anchor: end" x="60.335625" y="200.976076" transform="rotate(-0 60.335625 200.976076)">0.0002</text>
     </g>
    </g>
    <g id="ytick_3">
     <g id="line2d_17">
      <path d="M 67.335625 165.513927 
L 703.525625 165.513927 
" clip-path="url(#paed652ffe3)" style="fill: none; stroke: #b0b0b0; stroke-opacity: 0.2; stroke-width: 0.8; stroke-linecap: square"/>
     </g>
     <g id="line2d_18">
      <g>
       <use xlink:href="#m9c6cd633d0" x="67.335625" y="165.513927" style="stroke: #000000; stroke-width: 0.8"/>
      </g>
     </g>
     <g id="text_10">
      <text style="font-size: 11px; font-family: 'DejaVu Sans', 'Bitstream Vera Sans', 'Computer Modern Sans Serif', 'Lucida Grande', 'Verdana', 'Geneva', 'Lucid', 'Arial', 'Helvetica', 'Avant Garde', sans-serif; text-anchor: end" x="60.335625" y="169.693067" transform="rotate(-0 60.335625 169.693067)">0.0004</text>
     </g>
    </g>
    <g id="ytick_4">
     <g id="line2d_19">
      <path d="M 67.335625 134.230918 
L 703.525625 134.230918 
" clip-path="url(#paed652ffe3)" style="fill: none; stroke: #b0b0b0; stroke-opacity: 0.2; stroke-width: 0.8; stroke-linecap: square"/>
     </g>
     <g id="line2d_20">
      <g>
       <use xlink:href="#m9c6cd633d0" x="67.335625" y="134.230918" style="stroke: #000000; stroke-width: 0.8"/>
      </g>
     </g>
     <g id="text_11">
      <text style="font-size: 11px; font-family: 'DejaVu Sans', 'Bitstream Vera Sans', 'Computer Modern Sans Serif', 'Lucida Grande', 'Verdana', 'Geneva', 'Lucid', 'Arial', 'Helvetica', 'Avant Garde', sans-serif; text-anchor: end" x="60.335625" y="138.410059" transform="rotate(-0 60.335625 138.410059)">0.0006</text>
     </g>
    </g>
    <g id="ytick_5">
     <g id="line2d_21">
      <path d="M 67.335625 102.94791 
L 703.525625 102.94791 
" clip-path="url(#paed652ffe3)" style="fill: none; stroke: #b0b0b0; stroke-opacity: 0.2; stroke-width: 0.8; stroke-linecap: square"/>
     </g>
     <g id="line2d_22">
      <g>
       <use xlink:href="#m9c6cd633d0" x="67.335625" y="102.94791" style="stroke: #000000; stroke-width: 0.8"/>
      </g>
     </g>
     <g id="text_12">
      <text style="font-size: 11px; font-family: 'DejaVu Sans', 'Bitstream Vera Sans', 'Computer Modern Sans Serif', 'Lucida Grande', 'Verdana', 'Geneva', 'Lucid', 'Arial', 'Helvetica', 'Avant Garde', sans-serif; text-anchor: end" x="60.335625" y="107.127051" transform="rotate(-0 60.335625 107.127051)">0.0008</text>
     </g>
    </g>
    <g id="ytick_6">
     <g id="line2d_23">
      <path d="M 67.335625 71.664902 
L 703.525625 71.664902 
" clip-path="url(#paed652ffe3)" style="fill: none; stroke: #b0b0b0; stroke-opacity: 0.2; stroke-width: 0.8; stroke-linecap: square"/>
     </g>
     <g id="line2d_24">
      <g>
       <use xlink:href="#m9c6cd633d0" x="67.335625" y="71.664902" style="stroke: #000000; stroke-width: 0.8"/>
      </g>
     </g>
     <g id="text_13">
      <text style="font-size: 11px; font-family: 'DejaVu Sans', 'Bitstream Vera Sans', 'Computer Modern Sans Serif', 'Lucida Grande', 'Verdana', 'Geneva', 'Lucid', 'Arial', 'Helvetica', 'Avant Garde', sans-serif; text-anchor: end" x="60.335625" y="75.844042" transform="rotate(-0 60.335625 75.844042)">0.0010</text>
     </g>
    </g>
    <g id="ytick_7">
     <g id="line2d_25">
      <path d="M 67.335625 40.381893 
L 703.525625 40.381893 
" clip-path="url(#paed652ffe3)" style="fill: none; stroke: #b0b0b0; stroke-opacity: 0.2; stroke-width: 0.8; stroke-linecap: square"/>
     </g>
     <g id="line2d_26">
      <g>
       <use xlink:href="#m9c6cd633d0" x="67.335625" y="40.381893" style="stroke: #000000; stroke-width: 0.8"/>
      </g>
     </g>
     <g id="text_14">
      <text style="font-size: 11px; font-family: 'DejaVu Sans', 'Bitstream Vera Sans', 'Computer Modern Sans Serif', 'Lucida Grande', 'Verdana', 'Geneva', 'Lucid', 'Arial', 'Helvetica', 'Avant Garde', sans-serif; text-anchor: end" x="60.335625" y="44.561034" transform="rotate(-0 60.335625 44.561034)">0.0012</text>
     </g>
    </g>
    <g id="text_15">
     <text style="font-size: 11px; font-family: 'DejaVu Sans', 'Bitstream Vera Sans', 'Computer Modern Sans Serif', 'Lucida Grande', 'Verdana', 'Geneva', 'Lucid', 'Arial', 'Helvetica', 'Avant Garde', sans-serif; text-anchor: middle" x="15.558281" y="130.098125" transform="rotate(-90 15.558281 130.098125)">avg queue delay (ms)</text>
    </g>
   </g>
   <g id="line2d_27">
    <path d="M 96.253352 228.079943 
L 102.095317 228.079943 
L 107.937282 228.079943 
L 113.779248 228.079943 
L 119.621213 228.079943 
L 125.463178 228.079943 
L 131.305143 228.079943 
L 137.147108 228.079943 
L 142.989073 228.079943 
L 148.831038 228.079943 
L 154.673003 228.079943 
L 160.514968 228.079943 
L 166.356934 228.079943 
L 172.198899 228.079943 
L 178.040864 228.079943 
L 183.882829 228.079943 
L 189.724794 228.079943 
L 195.566759 228.079943 
L 201.408724 228.079943 
L 207.250689 228.079943 
L 213.092654 228.079943 
L 218.934619 228.079943 
L 224.776585 228.079943 
L 230.61855 228.079943 
L 236.460515 228.079943 
L 242.30248 228.079943 
L 248.144445 228.079943 
L 253.98641 228.079943 
L 259.828375 228.079943 
L 265.67034 228.079943 
L 271.512305 228.079943 
L 277.354271 228.079943 
L 283.196236 228.079943 
L 289.038201 228.079943 
L 294.880166 228.079943 
L 300.722131 228.079943 
L 306.564096 228.079943 
L 312.406061 228.079943 
L 318.248026 228.079943 
L 324.089991 228.079943 
L 329.931956 228.079943 
L 335.773922 228.079943 
L 341.615887 228.079943 
L 347.457852 228.079943 
L 353.299817 228.079943 
L 359.141782 228.079943 
L 364.983747 228.079943 
L 370.825712 228.079943 
L 376.667677 228.079943 
L 382.509642 228.079943 
L 388.351608 228.079943 
L 394.193573 228.079943 
L 400.035538 228.079943 
L 405.877503 228.079943 
L 411.719468 228.079943 
L 417.561433 228.079943 
L 423.403398 228.079943 
L 429.245363 228.079943 
L 435.087328 228.079943 
L 440.929294 228.079943 
L 446.771259 228.079943 
L 452.613224 228.079943 
L 458.455189 228.079943 
L 464.297154 228.079943 
L 470.139119 228.079943 
L 475.981084 228.079943 
L 481.823049 228.079943 
L 487.665014 228.079943 
L 493.506979 228.079943 
L 499.348945 228.079943 
L 505.19091 228.079943 
L 511.032875 228.079943 
L 516.87484 228.079943 
L 522.716805 228.079943 
L 528.55877 228.079943 
L 534.400735 228.079943 
L 540.2427 228.079943 
L 546.084665 228.079943 
L 551.926631 228.079943 
L 557.768596 228.079943 
L 563.610561 228.079943 
L 569.452526 228.079943 
L 575.294491 228.079943 
L 581.136456 228.079943 
L 586.978421 228.079943 
L 592.820386 228.079943 
L 598.662351 228.079943 
L 604.504316 228.079943 
L 610.346282 228.079943 
L 616.188247 228.079943 
L 622.030212 228.079943 
L 627.872177 228.079943 
L 633.714142 228.079943 
L 639.556107 228.079943 
L 645.398072 228.079943 
L 651.240037 228.079943 
L 657.082002 228.079943 
L 662.923968 228.079943 
L 668.765933 228.079943 
L 674.607898 228.079943 
" clip-path="url(#paed652ffe3)" style="fill: none; stroke: #1f77b4; stroke-width: 1.5; stroke-linecap: square"/>
    <defs>
     <path id="m53ea4c83ec" d="M 0 3 
C 0.795609 3 1.55874 2.683901 2.12132 2.12132 
C 2.683901 1.55874 3 0.795609 3 0 
C 3 -0.795609 2.683901 -1.55874 2.12132 -2.12132 
C 1.55874 -2.683901 0.795609 -3 0 -3 
C -0.795609 -3 -1.55874 -2.683901 -2.12132 -2.12132 
C -2.683901 -1.55874 -3 -0.795609 -3 0 
C -3 0.795609 -2.683901 1.55874 -2.12132 2.12132 
C -1.55874 2.683901 -0.795609 3 0 3 
z
" style="stroke: #1f77b4"/>
    </defs>
    <g clip-path="url(#paed652ffe3)">
     <use xlink:href="#m53ea4c83ec" x="96.253352" y="228.079943" style="fill: #1f77b4; stroke: #1f77b4"/>
     <use xlink:href="#m53ea4c83ec" x="102.095317" y="228.079943" style="fill: #1f77b4; stroke: #1f77b4"/>
     <use xlink:href="#m53ea4c83ec" x="107.937282" y="228.079943" style="fill: #1f77b4; stroke: #1f77b4"/>
     <use xlink:href="#m53ea4c83ec" x="113.779248" y="228.079943" style="fill: #1f77b4; stroke: #1f77b4"/>
     <use xlink:href="#m53ea4c83ec" x="119.621213" y="228.079943" style="fill: #1f77b4; stroke: #1f77b4"/>
     <use xlink:href="#m53ea4c83ec" x="125.463178" y="228.079943" style="fill: #1f77b4; stroke: #1f77b4"/>
     <use xlink:href="#m53ea4c83ec" x="131.305143" y="228.079943" style="fill: #1f77b4; stroke: #1f77b4"/>
     <use xlink:href="#m53ea4c83ec" x="137.147108" y="228.079943" style="fill: #1f77b4; stroke: #1f77b4"/>
     <use xlink:href="#m53ea4c83ec" x="142.989073" y="228.079943" style="fill: #1f77b4; stroke: #1f77b4"/>
     <use xlink:href="#m53ea4c83ec" x="148.831038" y="228.079943" style="fill: #1f77b4; stroke: #1f77b4"/>
     <use xlink:href="#m53ea4c83ec" x="154.673003" y="228.079943" style="fill: #1f77b4; stroke: #1f77b4"/>
     <use xlink:href="#m53ea4c83ec" x="160.514968" y="228.079943" style="fill: #1f77b4; stroke: #1f77b4"/>
     <use xlink:href="#m53ea4c83ec" x="166.356934" y="228.079943" style="fill: #1f77b4; stroke: #1f77b4"/>
     <use xlink:href="#m53ea4c83ec" x="172.198899" y="228.079943" style="fill: #1f77b4; stroke: #1f77b4"/>
     <use xlink:href="#m53ea4c83ec" x="178.040864" y="228.079943" style="fill: #1f77b4; stroke: #1f77b4"/>
     <use xlink:href="#m53ea4c83ec" x="183.882829" y="228.079943" style="fill: #1f77b4; stroke: #1f77b4"/>
     <use xlink:href="#m53ea4c83ec" x="189.724794" y="228.079943" style="fill: #1f77b4; stroke: #1f77b4"/>
     <use xlink:href="#m53ea4c83ec" x="195.566759" y="228.079943" style="fill: #1f77b4; stroke: #1f77b4"/>
     <use xlink:href="#m53ea4c83ec" x="201.408724" y="228.079943" style="fill: #1f77b4; stroke: #1f77b4"/>
     <use xlink:href="#m53ea4c83ec" x="207.250689" y="228.079943" style="fill: #1f77b4; stroke: #1f77b4"/>
     <use xlink:href="#m53ea4c83ec" x="213.092654" y="228.079943" style="fill: #1f77b4; stroke: #1f77b4"/>
     <use xlink:href="#m53ea4c83ec" x="218.934619" y="228.079943" style="fill: #1f77b4; stroke: #1f77b4"/>
     <use xlink:href="#m53ea4c83ec" x="224.776585" y="228.079943" style="fill: #1f77b4; stroke: #1f77b4"/>
     <use xlink:href="#m53ea4c83ec" x="230.61855" y="228.079943" style="fill: #1f77b4; stroke: #1f77b4"/>
     <use xlink:href="#m53ea4c83ec" x="236.460515" y="228.079943" style="fill: #1f77b4; stroke: #1f77b4"/>
     <use xlink:href="#m53ea4c83ec" x="242.30248" y="228.079943" style="fill: #1f77b4; stroke: #1f77b4"/>
     <use xlink:href="#m53ea4c83ec" x="248.144445" y="228.079943" style="fill: #1f77b4; stroke: #1f77b4"/>
     <use xlink:href="#m53ea4c83ec" x="253.98641" y="228.079943" style="fill: #1f77b4; stroke: #1f77b4"/>
     <use xlink:href="#m53ea4c83ec" x="259.828375" y="228.079943" style="fill: #1f77b4; stroke: #1f77b4"/>
     <use xlink:href="#m53ea4c83ec" x="265.67034" y="228.079943" style="fill: #1f77b4; stroke: #1f77b4"/>
     <use xlink:href="#m53ea4c83ec" x="271.512305" y="228.079943" style="fill: #1f77b4; stroke: #1f77b4"/>
     <use xlink:href="#m53ea4c83ec" x="277.354271" y="228.079943" style="fill: #1f77b4; stroke: #1f77b4"/>
     <use xlink:href="#m53ea4c83ec" x="283.196236" y="228.079943" style="fill: #1f77b4; stroke: #1f77b4"/>
     <use xlink:href="#m53ea4c83ec" x="289.038201" y="228.079943" style="fill: #1f77b4; stroke: #1f77b4"/>
     <use xlink:href="#m53ea4c83ec" x="294.880166" y="228.079943" style="fill: #1f77b4; stroke: #1f77b4"/>
     <use xlink:href="#m53ea4c83ec" x="300.722131" y="228.079943" style="fill: #1f77b4; stroke: #1f77b4"/>
     <use xlink:href="#m53ea4c83ec" x="306.564096" y="228.079943" style="fill: #1f77b4; stroke: #1f77b4"/>
     <use xlink:href="#m53ea4c83ec" x="312.406061" y="228.079943" style="fill: #1f77b4; stroke: #1f77b4"/>
     <use xlink:href="#m53ea4c83ec" x="318.248026" y="228.079943" style="fill: #1f77b4; stroke: #1f77b4"/>
     <use xlink:href="#m53ea4c83ec" x="324.089991" y="228.079943" style="fill: #1f77b4; stroke: #1f77b4"/>
     <use xlink:href="#m53ea4c83ec" x="329.931956" y="228.079943" style="fill: #1f77b4; stroke: #1f77b4"/>
     <use xlink:href="#m53ea4c83ec" x="335.773922" y="228.079943" style="fill: #1f77b4; stroke: #1f77b4"/>
     <use xlink:href="#m53ea4c83ec" x="341.615887" y="228.079943" style="fill: #1f77b4; stroke: #1f77b4"/>
     <use xlink:href="#m53ea4c83ec" x="347.457852" y="228.079943" style="fill: #1f77b4; stroke: #1f77b4"/>
     <use xlink:href="#m53ea4c83ec" x="353.299817" y="228.079943" style="fill: #1f77b4; stroke: #1f77b4"/>
     <use xlink:href="#m53ea4c83ec" x="359.141782" y="228.079943" style="fill: #1f77b4; stroke: #1f77b4"/>
     <use xlink:href="#m53ea4c83ec" x="364.983747" y="228.079943" style="fill: #1f77b4; stroke: #1f77b4"/>
     <use xlink:href="#m53ea4c83ec" x="370.825712" y="228.079943" style="fill: #1f77b4; stroke: #1f77b4"/>
     <use xlink:href="#m53ea4c83ec" x="376.667677" y="228.079943" style="fill: #1f77b4; stroke: #1f77b4"/>
     <use xlink:href="#m53ea4c83ec" x="382.509642" y="228.079943" style="fill: #1f77b4; stroke: #1f77b4"/>
     <use xlink:href="#m53ea4c83ec" x="388.351608" y="228.079943" style="fill: #1f77b4; stroke: #1f77b4"/>
     <use xlink:href="#m53ea4c83ec" x="394.193573" y="228.079943" style="fill: #1f77b4; stroke: #1f77b4"/>
     <use xlink:href="#m53ea4c83ec" x="400.035538" y="228.079943" style="fill: #1f77b4; stroke: #1f77b4"/>
     <use xlink:href="#m53ea4c83ec" x="405.877503" y="228.079943" style="fill: #1f77b4; stroke: #1f77b4"/>
     <use xlink:href="#m53ea4c83ec" x="411.719468" y="228.079943" style="fill: #1f77b4; stroke: #1f77b4"/>
     <use xlink:href="#m53ea4c83ec" x="417.561433" y="228.079943" style="fill: #1f77b4; stroke: #1f77b4"/>
     <use xlink:href="#m53ea4c83ec" x="423.403398" y="228.079943" style="fill: #1f77b4; stroke: #1f77b4"/>
     <use xlink:href="#m53ea4c83ec" x="429.245363" y="228.079943" style="fill: #1f77b4; stroke: #1f77b4"/>
     <use xlink:href="#m53ea4c83ec" x="435.087328" y="228.079943" style="fill: #1f77b4; stroke: #1f77b4"/>
     <use xlink:href="#m53ea4c83ec" x="440.929294" y="228.079943" style="fill: #1f77b4; stroke: #1f77b4"/>
     <use xlink:href="#m53ea4c83ec" x="446.771259" y="228.079943" style="fill: #1f77b4; stroke: #1f77b4"/>
     <use xlink:href="#m53ea4c83ec" x="452.613224" y="228.079943" style="fill: #1f77b4; stroke: #1f77b4"/>
     <use xlink:href="#m53ea4c83ec" x="458.455189" y="228.079943" style="fill: #1f77b4; stroke: #1f77b4"/>
     <use xlink:href="#m53ea4c83ec" x="464.297154" y="228.079943" style="fill: #1f77b4; stroke: #1f77b4"/>
     <use xlink:href="#m53ea4c83ec" x="470.139119" y="228.079943" style="fill: #1f77b4; stroke: #1f77b4"/>
     <use xlink:href="#m53ea4c83ec" x="475.981084" y="228.079943" style="fill: #1f77b4; stroke: #1f77b4"/>
     <use xlink:href="#m53ea4c83ec" x="481.823049" y="228.079943" style="fill: #1f77b4; stroke: #1f77b4"/>
     <use xlink:href="#m53ea4c83ec" x="487.665014" y="228.079943" style="fill: #1f77b4; stroke: #1f77b4"/>
     <use xlink:href="#m53ea4c83ec" x="493.506979" y="228.079943" style="fill: #1f77b4; stroke: #1f77b4"/>
     <use xlink:href="#m53ea4c83ec" x="499.348945" y="228.079943" style="fill: #1f77b4; stroke: #1f77b4"/>
     <use xlink:href="#m53ea4c83ec" x="505.19091" y="228.079943" style="fill: #1f77b4; stroke: #1f77b4"/>
     <use xlink:href="#m53ea4c83ec" x="511.032875" y="228.079943" style="fill: #1f77b4; stroke: #1f77b4"/>
     <use xlink:href="#m53ea4c83ec" x="516.87484" y="228.079943" style="fill: #1f77b4; stroke: #1f77b4"/>
     <use xlink:href="#m53ea4c83ec" x="522.716805" y="228.079943" style="fill: #1f77b4; stroke: #1f77b4"/>
     <use xlink:href="#m53ea4c83ec" x="528.55877" y="228.079943" style="fill: #1f77b4; stroke: #1f77b4"/>
     <use xlink:href="#m53ea4c83ec" x="534.400735" y="228.079943" style="fill: #1f77b4; stroke: #1f77b4"/>
     <use xlink:href="#m53ea4c83ec" x="540.2427" y="228.079943" style="fill: #1f77b4; stroke: #1f77b4"/>
     <use xlink:href="#m53ea4c83ec" x="546.084665" y="228.079943" style="fill: #1f77b4; stroke: #1f77b4"/>
     <use xlink:href="#m53ea4c83ec" x="551.926631" y="228.079943" style="fill: #1f77b4; stroke: #1f77b4"/>
     <use xlink:href="#m53ea4c83ec" x="557.768596" y="228.079943" style="fill: #1f77b4; stroke: #1f77b4"/>
     <use xlink:href="#m53ea4c83ec" x="563.610561" y="228.079943" style="fill: #1f77b4; stroke: #1f77b4"/>
     <use xlink:href="#m53ea4c83ec" x="569.452526" y="228.079943" style="fill: #1f77b4; stroke: #1f77b4"/>
     <use xlink:href="#m53ea4c83ec" x="575.294491" y="228.079943" style="fill: #1f77b4; stroke: #1f77b4"/>
     <use xlink:href="#m53ea4c83ec" x="581.136456" y="228.079943" style="fill: #1f77b4; stroke: #1f77b4"/>
     <use xlink:href="#m53ea4c83ec" x="586.978421" y="228.079943" style="fill: #1f77b4; stroke: #1f77b4"/>
     <use xlink:href="#m53ea4c83ec" x="592.820386" y="228.079943" style="fill: #1f77b4; stroke: #1f77b4"/>
     <use xlink:href="#m53ea4c83ec" x="598.662351" y="228.079943" style="fill: #1f77b4; stroke: #1f77b4"/>
     <use xlink:href="#m53ea4c83ec" x="604.504316" y="228.079943" style="fill: #1f77b4; stroke: #1f77b4"/>
     <use xlink:href="#m53ea4c83ec" x="610.346282" y="228.079943" style="fill: #1f77b4; stroke: #1f77b4"/>
     <use xlink:href="#m53ea4c83ec" x="616.188247" y="228.079943" style="fill: #1f77b4; stroke: #1f77b4"/>
     <use xlink:href="#m53ea4c83ec" x="622.030212" y="228.079943" style="fill: #1f77b4; stroke: #1f77b4"/>
     <use xlink:href="#m53ea4c83ec" x="627.872177" y="228.079943" style="fill: #1f77b4; stroke: #1f77b4"/>
     <use xlink:href="#m53ea4c83ec" x="633.714142" y="228.079943" style="fill: #1f77b4; stroke: #1f77b4"/>
     <use xlink:href="#m53ea4c83ec" x="639.556107" y="228.079943" style="fill: #1f77b4; stroke: #1f77b4"/>
     <use xlink:href="#m53ea4c83ec" x="645.398072" y="228.079943" style="fill: #1f77b4; stroke: #1f77b4"/>
     <use xlink:href="#m53ea4c83ec" x="651.240037" y="228.079943" style="fill: #1f77b4; stroke: #1f77b4"/>
     <use xlink:href="#m53ea4c83ec" x="657.082002" y="228.079943" style="fill: #1f77b4; stroke: #1f77b4"/>
     <use xlink:href="#m53ea4c83ec" x="662.923968" y="228.079943" style="fill: #1f77b4; stroke: #1f77b4"/>
     <use xlink:href="#m53ea4c83ec" x="668.765933" y="228.079943" style="fill: #1f77b4; stroke: #1f77b4"/>
     <use xlink:href="#m53ea4c83ec" x="674.607898" y="228.079943" style="fill: #1f77b4; stroke: #1f77b4"/>
    </g>
   </g>
   <g id="line2d_28">
    <path d="M 96.253352 228.079943 
L 102.095317 228.079943 
L 107.937282 228.079943 
L 113.779248 228.079943 
L 119.621213 228.079943 
L 125.463178 228.079943 
L 131.305143 228.079943 
L 137.147108 134.32703 
L 142.989073 228.079943 
L 148.831038 132.918529 
L 154.673003 136.381944 
L 160.514968 228.079943 
L 166.356934 37.419449 
L 172.198899 132.595322 
L 178.040864 228.079943 
L 183.882829 228.079943 
L 189.724794 134.73444 
L 195.566759 228.079943 
L 201.408724 127.419213 
L 207.250689 129.432149 
L 213.092654 127.689539 
L 218.934619 136.756183 
L 224.776585 136.714507 
L 230.61855 134.523505 
L 236.460515 228.079943 
L 242.30248 228.079943 
L 248.144445 228.079943 
L 253.98641 228.079943 
L 259.828375 228.079943 
L 265.67034 135.575628 
L 271.512305 128.846975 
L 277.354271 228.079943 
L 283.196236 136.316452 
L 289.038201 134.419739 
L 294.880166 228.079943 
L 300.722131 228.079943 
L 306.564096 228.079943 
L 312.406061 128.665809 
L 318.248026 228.079943 
L 324.089991 228.079943 
L 329.931956 136.701749 
L 335.773922 228.079943 
L 341.615887 228.079943 
L 347.457852 228.079943 
L 353.299817 130.409424 
L 359.141782 228.079943 
L 364.983747 136.647314 
L 370.825712 228.079943 
L 376.667677 134.685712 
L 382.509642 228.079943 
L 388.351608 127.378936 
L 394.193573 129.393953 
L 400.035538 134.275997 
L 405.877503 135.721071 
L 411.719468 228.079943 
L 417.561433 133.359111 
L 423.403398 32.116307 
L 429.245363 228.079943 
L 435.087328 228.079943 
L 440.929294 228.079943 
L 446.771259 134.661294 
L 452.613224 135.705762 
L 458.455189 228.079943 
L 464.297154 228.079943 
L 470.139119 228.079943 
L 475.981084 133.458624 
L 481.823049 135.872468 
L 487.665014 136.776596 
L 493.506979 135.722772 
L 499.348945 127.561177 
L 505.19091 127.567349 
L 511.032875 228.079943 
L 516.87484 137.512317 
L 522.716805 133.302124 
L 528.55877 228.079943 
L 534.400735 228.079943 
L 540.2427 228.079943 
L 546.084665 136.709404 
L 551.926631 228.079943 
L 557.768596 129.515515 
L 563.610561 137.002841 
L 569.452526 130.822788 
L 575.294491 228.079943 
L 581.136456 134.091429 
L 586.978421 228.079943 
L 592.820386 228.079943 
L 598.662351 135.933707 
L 604.504316 136.458983 
L 610.346282 228.079943 
L 616.188247 228.079943 
L 622.030212 228.079943 
L 627.872177 136.628149 
L 633.714142 135.528848 
L 639.556107 228.079943 
L 645.398072 136.06299 
L 651.240037 228.079943 
L 657.082002 136.613697 
L 662.923968 228.079943 
L 668.765933 41.291125 
L 674.607898 228.079943 
" clip-path="url(#paed652ffe3)" style="fill: none; stroke: #ff7f0e; stroke-width: 1.5; stroke-linecap: square"/>
    <defs>
     <path id="m5153d36816" d="M 0 3 
C 0.795609 3 1.55874 2.683901 2.12132 2.12132 
C 2.683901 1.55874 3 0.795609 3 0 
C 3 -0.795609 2.683901 -1.55874 2.12132 -2.12132 
C 1.55874 -2.683901 0.795609 -3 0 -3 
C -0.795609 -3 -1.55874 -2.683901 -2.12132 -2.12132 
C -2.683901 -1.55874 -3 -0.795609 -3 0 
C -3 0.795609 -2.683901 1.55874 -2.12132 2.12132 
C -1.55874 2.683901 -0.795609 3 0 3 
z
" style="stroke: #ff7f0e"/>
    </defs>
    <g clip-path="url(#paed652ffe3)">
     <use xlink:href="#m5153d36816" x="96.253352" y="228.079943" style="fill: #ff7f0e; stroke: #ff7f0e"/>
     <use xlink:href="#m5153d36816" x="102.095317" y="228.079943" style="fill: #ff7f0e; stroke: #ff7f0e"/>
     <use xlink:href="#m5153d36816" x="107.937282" y="228.079943" style="fill: #ff7f0e; stroke: #ff7f0e"/>
     <use xlink:href="#m5153d36816" x="113.779248" y="228.079943" style="fill: #ff7f0e; stroke: #ff7f0e"/>
     <use xlink:href="#m5153d36816" x="119.621213" y="228.079943" style="fill: #ff7f0e; stroke: #ff7f0e"/>
     <use xlink:href="#m5153d36816" x="125.463178" y="228.079943" style="fill: #ff7f0e; stroke: #ff7f0e"/>
     <use xlink:href="#m5153d36816" x="131.305143" y="228.079943" style="fill: #ff7f0e; stroke: #ff7f0e"/>
     <use xlink:href="#m5153d36816" x="137.147108" y="134.32703" style="fill: #ff7f0e; stroke: #ff7f0e"/>
     <use xlink:href="#m5153d36816" x="142.989073" y="228.079943" style="fill: #ff7f0e; stroke: #ff7f0e"/>
     <use xlink:href="#m5153d36816" x="148.831038" y="132.918529" style="fill: #ff7f0e; stroke: #ff7f0e"/>
     <use xlink:href="#m5153d36816" x="154.673003" y="136.381944" style="fill: #ff7f0e; stroke: #ff7f0e"/>
     <use xlink:href="#m5153d36816" x="160.514968" y="228.079943" style="fill: #ff7f0e; stroke: #ff7f0e"/>
     <use xlink:href="#m5153d36816" x="166.356934" y="37.419449" style="fill: #ff7f0e; stroke: #ff7f0e"/>
     <use xlink:href="#m5153d36816" x="172.198899" y="132.595322" style="fill: #ff7f0e; stroke: #ff7f0e"/>
     <use xlink:href="#m5153d36816" x="178.040864" y="228.079943" style="fill: #ff7f0e; stroke: #ff7f0e"/>
     <use xlink:href="#m5153d36816" x="183.882829" y="228.079943" style="fill: #ff7f0e; stroke: #ff7f0e"/>
     <use xlink:href="#m5153d36816" x="189.724794" y="134.73444" style="fill: #ff7f0e; stroke: #ff7f0e"/>
     <use xlink:href="#m5153d36816" x="195.566759" y="228.079943" style="fill: #ff7f0e; stroke: #ff7f0e"/>
     <use xlink:href="#m5153d36816" x="201.408724" y="127.419213" style="fill: #ff7f0e; stroke: #ff7f0e"/>
     <use xlink:href="#m5153d36816" x="207.250689" y="129.432149" style="fill: #ff7f0e; stroke: #ff7f0e"/>
     <use xlink:href="#m5153d36816" x="213.092654" y="127.689539" style="fill: #ff7f0e; stroke: #ff7f0e"/>
     <use xlink:href="#m5153d36816" x="218.934619" y="136.756183" style="fill: #ff7f0e; stroke: #ff7f0e"/>
     <use xlink:href="#m5153d36816" x="224.776585" y="136.714507" style="fill: #ff7f0e; stroke: #ff7f0e"/>
     <use xlink:href="#m5153d36816" x="230.61855" y="134.523505" style="fill: #ff7f0e; stroke: #ff7f0e"/>
     <use xlink:href="#m5153d36816" x="236.460515" y="228.079943" style="fill: #ff7f0e; stroke: #ff7f0e"/>
     <use xlink:href="#m5153d36816" x="242.30248" y="228.079943" style="fill: #ff7f0e; stroke: #ff7f0e"/>
     <use xlink:href="#m5153d36816" x="248.144445" y="228.079943" style="fill: #ff7f0e; stroke: #ff7f0e"/>
     <use xlink:href="#m5153d36816" x="253.98641" y="228.079943" style="fill: #ff7f0e; stroke: #ff7f0e"/>
     <use xlink:href="#m5153d36816" x="259.828375" y="228.079943" style="fill: #ff7f0e; stroke: #ff7f0e"/>
     <use xlink:href="#m5153d36816" x="265.67034" y="135.575628" style="fill: #ff7f0e; stroke: #ff7f0e"/>
     <use xlink:href="#m5153d36816" x="271.512305" y="128.846975" style="fill: #ff7f0e; stroke: #ff7f0e"/>
     <use xlink:href="#m5153d36816" x="277.354271" y="228.079943" style="fill: #ff7f0e; stroke: #ff7f0e"/>
     <use xlink:href="#m5153d36816" x="283.196236" y="136.316452" style="fill: #ff7f0e; stroke: #ff7f0e"/>
     <use xlink:href="#m5153d36816" x="289.038201" y="134.419739" style="fill: #ff7f0e; stroke: #ff7f0e"/>
     <use xlink:href="#m5153d36816" x="294.880166" y="228.079943" style="fill: #ff7f0e; stroke: #ff7f0e"/>
     <use xlink:href="#m5153d36816" x="300.722131" y="228.079943" style="fill: #ff7f0e; stroke: #ff7f0e"/>
     <use xlink:href="#m5153d36816" x="306.564096" y="228.079943" style="fill: #ff7f0e; stroke: #ff7f0e"/>
     <use xlink:href="#m5153d36816" x="312.406061" y="128.665809" style="fill: #ff7f0e; stroke: #ff7f0e"/>
     <use xlink:href="#m5153d36816" x="318.248026" y="228.079943" style="fill: #ff7f0e; stroke: #ff7f0e"/>
     <use xlink:href="#m5153d36816" x="324.089991" y="228.079943" style="fill: #ff7f0e; stroke: #ff7f0e"/>
     <use xlink:href="#m5153d36816" x="329.931956" y="136.701749" style="fill: #ff7f0e; stroke: #ff7f0e"/>
     <use xlink:href="#m5153d36816" x="335.773922" y="228.079943" style="fill: #ff7f0e; stroke: #ff7f0e"/>
     <use xlink:href="#m5153d36816" x="341.615887" y="228.079943" style="fill: #ff7f0e; stroke: #ff7f0e"/>
     <use xlink:href="#m5153d36816" x="347.457852" y="228.079943" style="fill: #ff7f0e; stroke: #ff7f0e"/>
     <use xlink:href="#m5153d36816" x="353.299817" y="130.409424" style="fill: #ff7f0e; stroke: #ff7f0e"/>
     <use xlink:href="#m5153d36816" x="359.141782" y="228.079943" style="fill: #ff7f0e; stroke: #ff7f0e"/>
     <use xlink:href="#m5153d36816" x="364.983747" y="136.647314" style="fill: #ff7f0e; stroke: #ff7f0e"/>
     <use xlink:href="#m5153d36816" x="370.825712" y="228.079943" style="fill: #ff7f0e; stroke: #ff7f0e"/>
     <use xlink:href="#m5153d36816" x="376.667677" y="134.685712" style="fill: #ff7f0e; stroke: #ff7f0e"/>
     <use xlink:href="#m5153d36816" x="382.509642" y="228.079943" style="fill: #ff7f0e; stroke: #ff7f0e"/>
     <use xlink:href="#m5153d36816" x="388.351608" y="127.378936" style="fill: #ff7f0e; stroke: #ff7f0e"/>
     <use xlink:href="#m5153d36816" x="394.193573" y="129.393953" style="fill: #ff7f0e; stroke: #ff7f0e"/>
     <use xlink:href="#m5153d36816" x="400.035538" y="134.275997" style="fill: #ff7f0e; stroke: #ff7f0e"/>
     <use xlink:href="#m5153d36816" x="405.877503" y="135.721071" style="fill: #ff7f0e; stroke: #ff7f0e"/>
     <use xlink:href="#m5153d36816" x="411.719468" y="228.079943" style="fill: #ff7f0e; stroke: #ff7f0e"/>
     <use xlink:href="#m5153d36816" x="417.561433" y="133.359111" style="fill: #ff7f0e; stroke: #ff7f0e"/>
     <use xlink:href="#m5153d36816" x="423.403398" y="32.116307" style="fill: #ff7f0e; stroke: #ff7f0e"/>
     <use xlink:href="#m5153d36816" x="429.245363" y="228.079943" style="fill: #ff7f0e; stroke: #ff7f0e"/>
     <use xlink:href="#m5153d36816" x="435.087328" y="228.079943" style="fill: #ff7f0e; stroke: #ff7f0e"/>
     <use xlink:href="#m5153d36816" x="440.929294" y="228.079943" style="fill: #ff7f0e; stroke: #ff7f0e"/>
     <use xlink:href="#m5153d36816" x="446.771259" y="134.661294" style="fill: #ff7f0e; stroke: #ff7f0e"/>
     <use xlink:href="#m5153d36816" x="452.613224" y="135.705762" style="fill: #ff7f0e; stroke: #ff7f0e"/>
     <use xlink:href="#m5153d36816" x="458.455189" y="228.079943" style="fill: #ff7f0e; stroke: #ff7f0e"/>
     <use xlink:href="#m5153d36816" x="464.297154" y="228.079943" style="fill: #ff7f0e; stroke: #ff7f0e"/>
     <use xlink:href="#m5153d36816" x="470.139119" y="228.079943" style="fill: #ff7f0e; stroke: #ff7f0e"/>
     <use xlink:href="#m5153d36816" x="475.981084" y="133.458624" style="fill: #ff7f0e; stroke: #ff7f0e"/>
     <use xlink:href="#m5153d36816" x="481.823049" y="135.872468" style="fill: #ff7f0e; stroke: #ff7f0e"/>
     <use xlink:href="#m5153d36816" x="487.665014" y="136.776596" style="fill: #ff7f0e; stroke: #ff7f0e"/>
     <use xlink:href="#m5153d36816" x="493.506979" y="135.722772" style="fill: #ff7f0e; stroke: #ff7f0e"/>
     <use xlink:href="#m5153d36816" x="499.348945" y="127.561177" style="fill: #ff7f0e; stroke: #ff7f0e"/>
     <use xlink:href="#m5153d36816" x="505.19091" y="127.567349" style="fill: #ff7f0e; stroke: #ff7f0e"/>
     <use xlink:href="#m5153d36816" x="511.032875" y="228.079943" style="fill: #ff7f0e; stroke: #ff7f0e"/>
     <use xlink:href="#m5153d36816" x="516.87484" y="137.512317" style="fill: #ff7f0e; stroke: #ff7f0e"/>
     <use xlink:href="#m5153d36816" x="522.716805" y="133.302124" style="fill: #ff7f0e; stroke: #ff7f0e"/>
     <use xlink:href="#m5153d36816" x="528.55877" y="228.079943" style="fill: #ff7f0e; stroke: #ff7f0e"/>
     <use xlink:href="#m5153d36816" x="534.400735" y="228.079943" style="fill: #ff7f0e; stroke: #ff7f0e"/>
     <use xlink:href="#m5153d36816" x="540.2427" y="228.079943" style="fill: #ff7f0e; stroke: #ff7f0e"/>
     <use xlink:href="#m5153d36816" x="546.084665" y="136.709404" style="fill: #ff7f0e; stroke: #ff7f0e"/>
     <use xlink:href="#m5153d36816" x="551.926631" y="228.079943" style="fill: #ff7f0e; stroke: #ff7f0e"/>
     <use xlink:href="#m5153d36816" x="557.768596" y="129.515515" style="fill: #ff7f0e; stroke: #ff7f0e"/>
     <use xlink:href="#m5153d36816" x="563.610561" y="137.002841" style="fill: #ff7f0e; stroke: #ff7f0e"/>
     <use xlink:href="#m5153d36816" x="569.452526" y="130.822788" style="fill: #ff7f0e; stroke: #ff7f0e"/>
     <use xlink:href="#m5153d36816" x="575.294491" y="228.079943" style="fill: #ff7f0e; stroke: #ff7f0e"/>
     <use xlink:href="#m5153d36816" x="581.136456" y="134.091429" style="fill: #ff7f0e; stroke: #ff7f0e"/>
     <use xlink:href="#m5153d36816" x="586.978421" y="228.079943" style="fill: #ff7f0e; stroke: #ff7f0e"/>
     <use xlink:href="#m5153d36816" x="592.820386" y="228.079943" style="fill: #ff7f0e; stroke: #ff7f0e"/>
     <use xlink:href="#m5153d36816" x="598.662351" y="135.933707" style="fill: #ff7f0e; stroke: #ff7f0e"/>
     <use xlink:href="#m5153d36816" x="604.504316" y="136.458983" style="fill: #ff7f0e; stroke: #ff7f0e"/>
     <use xlink:href="#m5153d36816" x="610.346282" y="228.079943" style="fill: #ff7f0e; stroke: #ff7f0e"/>
     <use xlink:href="#m5153d36816" x="616.188247" y="228.079943" style="fill: #ff7f0e; stroke: #ff7f0e"/>
     <use xlink:href="#m5153d36816" x="622.030212" y="228.079943" style="fill: #ff7f0e; stroke: #ff7f0e"/>
     <use xlink:href="#m5153d36816" x="627.872177" y="136.628149" style="fill: #ff7f0e; stroke: #ff7f0e"/>
     <use xlink:href="#m5153d36816" x="633.714142" y="135.528848" style="fill: #ff7f0e; stroke: #ff7f0e"/>
     <use xlink:href="#m5153d36816" x="639.556107" y="228.079943" style="fill: #ff7f0e; stroke: #ff7f0e"/>
     <use xlink:href="#m5153d36816" x="645.398072" y="136.06299" style="fill: #ff7f0e; stroke: #ff7f0e"/>
     <use xlink:href="#m5153d36816" x="651.240037" y="228.079943" style="fill: #ff7f0e; stroke: #ff7f0e"/>
     <use xlink:href="#m5153d36816" x="657.082002" y="136.613697" style="fill: #ff7f0e; stroke: #ff7f0e"/>
     <use xlink:href="#m5153d36816" x="662.923968" y="228.079943" style="fill: #ff7f0e; stroke: #ff7f0e"/>
     <use xlink:href="#m5153d36816" x="668.765933" y="41.291125" style="fill: #ff7f0e; stroke: #ff7f0e"/>
     <use xlink:href="#m5153d36816" x="674.607898" y="228.079943" style="fill: #ff7f0e; stroke: #ff7f0e"/>
    </g>
   </g>
   <g id="patch_3">
    <path d="M 67.335625 237.878125 
L 67.335625 22.318125 
" style="fill: none; stroke: #000000; stroke-width: 0.8; stroke-linejoin: miter; stroke-linecap: square"/>
   </g>
   <g id="patch_4">
    <path d="M 703.525625 237.878125 
L 703.525625 22.318125 
" style="fill: none; stroke: #000000; stroke-width: 0.8; stroke-linejoin: miter; stroke-linecap: square"/>
   </g>
   <g id="patch_5">
    <path d="M 67.335625 237.878125 
L 703.525625 237.878125 
" style="fill: none; stroke: #000000; stroke-width: 0.8; stroke-linejoin: miter; stroke-linecap: square"/>
   </g>
   <g id="patch_6">
    <path d="M 67.335625 22.318125 
L 703.525625 22.318125 
" style="fill: none; stroke: #000000; stroke-width: 0.8; stroke-linejoin: miter; stroke-linecap: square"/>
   </g>
   <g id="text_16">
    <text style="font-size: 12px; font-family: 'DejaVu Sans', 'Bitstream Vera Sans', 'Computer Modern Sans Serif', 'Lucida Grande', 'Verdana', 'Geneva', 'Lucid', 'Arial', 'Helvetica', 'Avant Garde', sans-serif; text-anchor: middle" x="385.430625" y="16.318125" transform="rotate(-0 385.430625 16.318125)">AVG_L_QUEUE_DELAY — avg queue delay per run</text>
   </g>
   <g id="legend_1">
    <g id="patch_7">
     <path d="M 593.180156 63.41 
L 695.825625 63.41 
Q 698.025625 63.41 698.025625 61.21 
L 698.025625 30.018125 
Q 698.025625 27.818125 695.825625 27.818125 
L 593.180156 27.818125 
Q 590.980156 27.818125 590.980156 30.018125 
L 590.980156 61.21 
Q 590.980156 63.41 593.180156 63.41 
z
" style="fill: #ffffff; opacity: 0.8; stroke: #cccccc; stroke-linejoin: miter"/>
    </g>
    <g id="line2d_29">
     <path d="M 595.380156 36.726406 
L 606.380156 36.726406 
L 617.380156 36.726406 
" style="fill: none; stroke: #1f77b4; stroke-width: 1.5; stroke-linecap: square"/>
     <g>
      <use xlink:href="#m53ea4c83ec" x="606.380156" y="36.726406" style="fill: #1f77b4; stroke: #1f77b4"/>
     </g>
    </g>
    <g id="text_17">
     <text style="font-size: 11px; font-family: 'DejaVu Sans', 'Bitstream Vera Sans', 'Computer Modern Sans Serif', 'Lucida Grande', 'Verdana', 'Geneva', 'Lucid', 'Arial', 'Helvetica', 'Avant Garde', sans-serif; text-anchor: start" x="626.180156" y="40.576406" transform="rotate(-0 626.180156 40.576406)">qdisc (linux)</text>
    </g>
    <g id="line2d_30">
     <path d="M 595.380156 52.872344 
L 606.380156 52.872344 
L 617.380156 52.872344 
" style="fill: none; stroke: #ff7f0e; stroke-width: 1.5; stroke-linecap: square"/>
     <g>
      <use xlink:href="#m5153d36816" x="606.380156" y="52.872344" style="fill: #ff7f0e; stroke: #ff7f0e"/>
     </g>
    </g>
    <g id="text_18">
     <text style="font-size: 11px; font-family: 'DejaVu Sans', 'Bitstream Vera Sans', 'Computer Modern Sans Serif', 'Lucida Grande', 'Verdana', 'Geneva', 'Lucid', 'Arial', 'Helvetica', 'Avant Garde', sans-serif; text-anchor: start" x="626.180156" y="56.722344" transform="rotate(-0 626.180156 56.722344)">mahimahi</text>
    </g>
   </g>
  </g>
 </g>
 <defs>
  <clipPath id="paed652ffe3">
   <rect x="67.335625" y="22.318125" width="636.19" height="215.56"/>
  </clipPath>
 </defs>
</svg>
